<?xml version="1.0" encoding="UTF-8"?>
<svg width="401px" height="238px" viewBox="0 0 401 238" version="1.1" xmlns="http://www.w3.org/2000/svg" xmlns:xlink="http://www.w3.org/1999/xlink">
    <title>account-privacy</title>
    <g id="Page-1" stroke="none" stroke-width="1" fill="none" fill-rule="evenodd">
        <g id="account-privacy">
            <g id="Layer_2-2" transform="translate(3.768506, 0.000000)">
                <rect id="Rectangle" x="0" y="0" width="396.231494" height="236.877524"></rect>
            </g>
            <g id="Layer_1-2" transform="translate(0.000000, 2.691790)">
                <path d="M149.825034,53.2974428 L124.3607,53.2974428 C123.379521,53.2974428 122.584118,52.5020402 122.584118,51.5208614 L122.584118,1.99192463 C122.584118,1.0107458 123.379521,0.215343203 124.3607,0.215343203 L149.825034,0.215343203 C150.806212,0.215343203 151.601615,1.0107458 151.601615,1.99192463 L151.601615,51.5208614 C151.601615,52.5020402 150.806212,53.2974428 149.825034,53.2974428 Z M124.3607,1.83041723 L124.199192,1.99192463 L124.199192,51.5208614 C124.199192,51.6100594 124.271502,51.6823688 124.3607,51.6823688 L149.825034,51.6823688 C149.867868,51.6823688 149.908948,51.6653529 149.939237,51.6350644 C149.969525,51.6047758 149.986541,51.5636958 149.986541,51.5208614 L149.986541,1.99192463 C149.986541,1.9490902 149.969525,1.90801016 149.939237,1.87772165 C149.908948,1.84743314 149.867868,1.83041723 149.825034,1.83041723 L124.3607,1.83041723 Z" id="Shape" fill="#97B3C6" fill-rule="nonzero"></path>
                <g id="Group" transform="translate(257.873486, 127.052490)" fill="#97B3C6" fill-rule="nonzero">
                    <path d="M135.12786,97.7119785 L2.26110363,97.7119785 C1.39822743,97.7192866 0.614310917,97.2108002 0.269179004,96.4199192 C-0.120853935,95.6210206 0.00646805627,94.6661057 0.592193809,93.9973082 L11.090175,81.3997308 C11.9928572,80.2722633 13.3605485,79.6181501 14.8048452,79.6231209 L122.584118,79.6231209 C124.024902,79.6335721 125.386306,80.2846786 126.298789,81.3997308 L136.79677,93.9973082 C137.364676,94.677593 137.470673,95.6315644 137.065949,96.4199192 C136.752105,97.2122484 135.97995,97.7270182 135.12786,97.7119785 L135.12786,97.7119785 Z M14.8048452,81.2380962 C13.8407828,81.2295321 12.9267671,81.6666701 12.3283984,82.422611 L1.83041723,95.0201884 C1.67091478,95.2376777 1.63052026,95.5204393 1.72274563,95.7738896 C1.8411279,95.9605272 2.04071409,96.0802789 2.26110363,96.0969044 L135.12786,96.0969044 C135.334807,96.0815622 135.518625,95.9590167 135.612382,95.7738896 C135.730765,95.5311549 135.710228,95.2436329 135.558546,95.0201884 L125.060565,82.422611 C124.452244,81.6792429 123.544641,81.2451719 122.584118,81.2380962 L14.8048452,81.2380962 Z" id="Shape"></path>
                    <path d="M119.35397,74.4010767 L17.9811575,74.4010767 C16.315523,74.4010767 14.7188814,73.7358051 13.5461656,72.5529797 C12.3734498,71.3701543 11.7218457,69.7678606 11.7359722,68.102288 L11.7359722,6.4602961 C11.7359722,3.00248735 14.523475,0.191061321 17.9811575,0.161507402 L119.35397,0.161507402 C122.832695,0.161507402 125.652759,2.98157116 125.652759,6.4602961 L125.652759,68.102288 C125.652759,71.581013 122.832695,74.4010767 119.35397,74.4010767 L119.35397,74.4010767 Z M17.9811575,1.77658143 C16.7438524,1.77658143 15.5579919,2.27167037 14.6881569,3.15161972 C13.8183219,4.03156908 13.3368913,5.2230747 13.3509652,6.4602961 L13.3509652,68.102288 C13.3368913,69.3395094 13.8183219,70.531015 14.6881569,71.4109644 C15.5579919,72.2909137 16.7438524,72.7860027 17.9811575,72.7860027 L119.35397,72.7860027 C121.940715,72.7860027 124.037685,70.6890322 124.037685,68.102288 L124.037685,6.4602961 C124.037685,3.87355191 121.940715,1.77658143 119.35397,1.77658143 L17.9811575,1.77658143 Z" id="Shape"></path>
                </g>
                <g id="Group" opacity="0.4" transform="translate(275.100942, 132.974428)" fill="#6497AD" fill-rule="nonzero">
                    <path d="M102.557201,63.4724092 L0.323014805,63.4724092 L0.323014805,0 L102.557201,0 L102.557201,63.4724092 Z M1.13055182,62.6648721 L101.749664,62.6648721 L101.749664,0.807537012 L1.13055182,0.807537012 L1.13055182,62.6648721 Z" id="Shape"></path>
                </g>
                <g id="Group" opacity="0.4" transform="translate(124.899058, 2.691790)" fill="#6497AD" fill-rule="nonzero">
                    <path d="M24.3876178,48.2907133 L0,48.2907133 L0,0.376850606 L6.3526245,0.376850606 L6.3526245,1.23822342 C6.3526245,2.07073879 7.02751155,2.74562584 7.86002692,2.74562584 L16.5275908,2.74562584 C16.9318675,2.7608981 17.3242189,2.60699277 17.6102895,2.32092211 C17.8963602,2.03485144 18.0502655,1.64250007 18.0349933,1.23822342 L18.0349933,0.376850606 L24.3876178,0.376850606 L24.3876178,48.2907133 Z M0.807537012,47.4831763 L23.5800808,47.4831763 L23.5800808,1.18438762 L18.8425303,1.18438762 C18.8425303,2.46289336 17.8060966,3.49932705 16.5275908,3.49932705 L7.86002692,3.49932705 C7.24606681,3.49932705 6.6572529,3.25543235 6.22311755,2.82129699 C5.78898219,2.38716163 5.54508748,1.79834773 5.54508748,1.18438762 L0.807537012,1.18438762 L0.807537012,47.4831763 Z" id="Shape"></path>
                </g>
                <rect id="Rectangle" fill="#6497AD" fill-rule="nonzero" opacity="0.1" x="126.837147" y="10.282638" width="20.6729475" height="6.4602961"></rect>
                <rect id="Rectangle" fill="#6497AD" fill-rule="nonzero" opacity="0.1" x="126.837147" y="18.0349933" width="20.6729475" height="6.4602961"></rect>
                <path d="M75.3701211,125.275908 L37.6850606,125.275908 C37.5375963,125.293448 37.3902324,125.242395 37.2852244,125.137387 C37.1802164,125.032379 37.1291627,124.885015 37.1467026,124.73755 C37.1467026,124.440224 37.3877336,124.199192 37.6850606,124.199192 L75.3701211,124.199192 C75.656438,124.224228 75.8834435,124.451234 75.9084791,124.73755 C75.9084791,125.034877 75.667448,125.275908 75.3701211,125.275908 Z" id="Path" fill="#97B3C6" fill-rule="nonzero"></path>
                <g id="Group" transform="translate(134.051144, 11.843876)" fill="#97B3C6" fill-rule="nonzero">
                    <path d="M10.820996,0.969044415 L0.323014805,0.969044415 C0.174351346,0.969044415 0.0538358008,0.848528869 0.0538358008,0.69986541 C0.0538358008,0.551201952 0.174351346,0.430686406 0.323014805,0.430686406 L10.820996,0.430686406 C10.9696594,0.430686406 11.090175,0.551201952 11.090175,0.69986541 C11.090175,0.848528869 10.9696594,0.969044415 10.820996,0.969044415 Z" id="Path"></path>
                    <path d="M10.820996,2.90713324 L0.323014805,2.90713324 C0.174351346,2.90713324 0.0538358008,2.7866177 0.0538358008,2.63795424 C0.0538358008,2.48929078 0.174351346,2.36877524 0.323014805,2.36877524 L10.820996,2.36877524 C10.9696594,2.36877524 11.090175,2.48929078 11.090175,2.63795424 C11.090175,2.7866177 10.9696594,2.90713324 10.820996,2.90713324 Z" id="Path"></path>
                </g>
                <rect id="Rectangle" fill="#6497AD" fill-rule="nonzero" opacity="0.5" x="311.92463" y="217.227456" width="29.2866756" height="3.64468371" rx="1.82234186"></rect>
                <path d="M77.7388964,185.51817 L35.3162853,185.51817 C32.5038411,185.489023 30.2310311,183.216213 30.2018843,180.403769 L30.2018843,120.215343 C30.2018843,117.390737 32.4916796,115.100942 35.3162853,115.100942 L77.7388964,115.100942 C80.5635021,115.100942 82.8532974,117.390737 82.8532974,120.215343 L82.8532974,180.403769 C82.8241506,183.216213 80.5513406,185.489023 77.7388964,185.51817 L77.7388964,185.51817 Z M35.3162853,116.716016 C33.3836604,116.716016 31.8169583,118.282718 31.8169583,120.215343 L31.8169583,180.403769 C31.8169583,182.336393 33.3836604,183.903096 35.3162853,183.903096 L77.7388964,183.903096 C79.6715213,183.903096 81.2382234,182.336393 81.2382234,180.403769 L81.2382234,120.215343 C81.2382234,118.282718 79.6715213,116.716016 77.7388964,116.716016 L35.3162853,116.716016 Z" id="Shape" fill="#97B3C6" fill-rule="nonzero"></path>
                <g id="Group" opacity="0.4" transform="translate(33.916555, 120.053836)" fill="#6497AD" fill-rule="nonzero">
                    <path d="M44.9528937,60.0269179 L0.215343203,60.0269179 L0.215343203,0.430686406 L44.9528937,0.430686406 L44.9528937,60.0269179 Z M1.02288022,59.2193809 L44.1453567,59.2193809 L44.1453567,1.23822342 L1.02288022,1.23822342 L1.02288022,59.2193809 Z" id="Shape"></path>
                </g>
                <circle id="Oval" fill="#97B3C6" fill-rule="nonzero" opacity="0.5" cx="130.39031" cy="13.512786" r="2.26110363"></circle>
                <g id="Group" transform="translate(134.051144, 19.919246)" fill="#97B3C6" fill-rule="nonzero">
                    <path d="M10.820996,0.64602961 L0.323014805,0.64602961 C0.174351346,0.64602961 0.0538358008,0.525514065 0.0538358008,0.376850606 C0.0538358008,0.228187147 0.174351346,0.107671602 0.323014805,0.107671602 L10.820996,0.107671602 C10.9696594,0.107671602 11.090175,0.228187147 11.090175,0.376850606 C11.090175,0.525514065 10.9696594,0.64602961 10.820996,0.64602961 Z" id="Path"></path>
                    <path d="M10.820996,2.58411844 L0.323014805,2.58411844 C0.174351346,2.58411844 0.0538358008,2.46360289 0.0538358008,2.31493943 C0.0538358008,2.16627598 0.174351346,2.04576043 0.323014805,2.04576043 L10.820996,2.04576043 C10.9696594,2.04576043 11.090175,2.16627598 11.090175,2.31493943 C11.090175,2.46360289 10.9696594,2.58411844 10.820996,2.58411844 Z" id="Path"></path>
                </g>
                <circle id="Oval" fill="#97B3C6" fill-rule="nonzero" opacity="0.5" cx="130.39031" cy="21.2651413" r="2.26110363"></circle>
                <g id="Group" transform="translate(307.402423, 142.664872)" fill-rule="nonzero">
                    <path d="M19.1655451,1.07657332 C19.4077906,1.07911781 19.6466092,1.13422979 19.8654105,1.23822342 L36.5545087,7.80619112 C36.9326148,7.95574242 37.1862392,8.31504361 37.2005384,8.72139973 L37.2005384,19.8654105 C37.0783327,21.1856466 36.880611,22.4977998 36.6083445,23.795424 C34.0780619,35.2624495 25.1951548,42.5302826 20.1345895,45.9757739 L18.1965007,45.9757739 C13.1359354,42.5302826 4.25302826,35.2624495 1.72274563,23.795424 C1.45047916,22.4977998 1.25275745,21.1856466 1.13055182,19.8654105 L1.13055182,8.72139973 C1.14752784,8.33156071 1.3740924,7.98141548 1.72274563,7.80619112 L18.4656797,1.23822342 C18.6825469,1.12878257 18.922651,1.07337394 19.1655451,1.07657332 M19.1655451,-3.06021098e-14 C18.7805973,0.0195541693 18.4001747,0.0920156204 18.0349933,0.215343203 L1.34589502,6.8371467 C0.571936934,7.14382814 0.0610129379,7.88892564 0.0538358008,8.72139973 L0.0538358008,19.8654105 L0.0538358008,19.8654105 C0.163953133,21.2260454 0.3799504,22.5760283 0.69986541,23.9030956 C3.12247645,34.9394347 11.1978466,42.422611 17.6043069,46.7833109 C17.8052736,46.9346503 18.0528901,47.01084 18.3041723,46.9986541 L19.9730821,46.9986541 C20.2410068,47.0103875 20.5054989,46.9348184 20.7267833,46.7833109 C27.1332436,42.422611 35.2086137,34.9394347 37.6312248,23.9030956 C37.9336588,22.5747113 38.1316614,21.224694 38.2234186,19.8654105 L38.2772544,19.8654105 L38.2772544,8.72139973 C38.2700772,7.88892564 37.7591532,7.14382814 36.9851952,6.8371467 L20.2422611,0.215343203 C19.8969241,0.0873488317 19.5335463,0.0146732611 19.1655451,-3.06021098e-14 L19.1655451,-3.06021098e-14 Z" id="Shape" fill="#97B3C6"></path>
                    <path d="M19.1117093,43.3378197 C13.4589502,39.4078062 6.4602961,32.7321669 4.36069987,23.2032301 C4.09852724,22.0691925 3.91860648,20.9176996 3.82234186,19.7577389 L3.82234186,9.90578735 L19.1655451,3.82234186 L34.5087483,9.90578735 L34.5087483,19.7577389 C34.4010767,20.9421265 34.1857335,22.0726783 33.9703903,23.2032301 C31.8707941,32.7321669 24.8183042,39.4078062 19.2193809,43.3378197 L19.1117093,43.3378197 Z" id="Path" fill="#97B3C6"></path>
                    <g opacity="0.4" transform="translate(18.304172, 2.691790)" fill="#FFFFFF">
                        <path d="M0.969044415,40.6998654 C6.5679677,36.769852 13.6204576,30.1480485 15.7200538,20.5652759 C15.935397,19.4526694 16.0969044,18.3221175 16.204576,17.1736205 L16.204576,7.26783311 L0.915208614,1.23822342 L0.915208614,40.6998654 L0.969044415,40.6998654 Z" id="Path"></path>
                        <path d="M1.13055182,41.2382234 L0.376850606,41.2382234 L0.376850606,0.430686406 L16.7429341,6.8909825 L16.7429341,17.1736205 C16.646654,18.3513491 16.4667476,19.5207406 16.204576,20.6729475 C14.1049798,30.4710633 6.9448183,37.2005384 1.29205922,41.1305518 L1.13055182,41.2382234 Z M1.45356662,1.99192463 L1.45356662,39.730821 C6.7833109,35.8008075 13.1897712,29.448183 15.1816958,20.4576043 C15.4258785,19.3585757 15.5878342,18.2428808 15.666218,17.1197847 L15.666218,7.64468371 L1.45356662,1.99192463 Z" id="Shape"></path>
                    </g>
                </g>
                <g id="Group" opacity="0.4" transform="translate(197.039031, 45.760431)" fill="#000000" fill-rule="nonzero">
                    <path d="M1.39973082,39.461642 L0.323014805,39.461642 L0.323014805,17.0659489 C0.323014805,7.8488144 7.7949786,0.376850606 17.0121131,0.376850606 L84.4145357,0.376850606 L84.4145357,1.45356662 L17.0121131,1.45356662 C8.38963244,1.45356662 1.39973082,8.44346824 1.39973082,17.0659489 L1.39973082,39.461642 Z" id="Path"></path>
                </g>
                <g id="Group" opacity="0.4" transform="translate(220.726783, 114.131898)" fill="#000000" fill-rule="nonzero">
                    <rect id="Rectangle" x="0.430686406" y="0.269179004" width="125.545087" height="1.07671602"></rect>
                </g>
                <g id="Group" opacity="0.4" transform="translate(220.188425, 121.130552)" fill="#000000" fill-rule="nonzero">
                    <path d="M47.5908479,46.9986541 L28.102288,46.9986541 C21.038161,46.9691584 15.3188631,41.2498606 15.2893674,34.1857335 L15.2893674,13.1897712 C15.2598933,6.72029232 10.0226417,1.48304079 3.55316285,1.45356662 L0.323014805,1.45356662 L0.323014805,0.376850606 L3.55316285,0.376850606 C10.6172899,0.406346302 16.3365877,6.12564414 16.3660834,13.1897712 L16.3660834,34.1857335 C16.3955576,40.6552124 21.6328091,45.8924639 28.102288,45.9219381 L47.5908479,45.9219381 L47.5908479,46.9986541 Z" id="Path"></path>
                </g>
                <g id="Group" opacity="0.4" transform="translate(157.200538, 141.588156)" fill="#000000" fill-rule="nonzero">
                    <path d="M23.2570659,69.5020188 L0,69.5020188 L0,68.4253028 L23.2570659,68.4253028 C31.8795466,68.4253028 38.8694482,61.4354012 38.8694482,52.8129206 L38.8694482,0.484522207 L39.9461642,0.484522207 L39.9461642,52.8129206 C39.9461642,62.030055 32.4742004,69.5020188 23.2570659,69.5020188 L23.2570659,69.5020188 Z" id="Path"></path>
                </g>
                <g id="Group" opacity="0.4" transform="translate(154.508748, 23.687752)" fill="#000000" fill-rule="nonzero">
                    <path d="M37.4697174,62.1803499 L36.3930013,62.1803499 L36.3930013,16.9582773 C36.3930013,8.33579664 29.4030997,1.34589502 20.7806191,1.34589502 L0.107671602,1.34589502 L0.107671602,0.269179004 L20.7806191,0.269179004 C29.9977536,0.269179004 37.4697174,7.7411428 37.4697174,16.9582773 L37.4697174,62.1803499 Z" id="Path"></path>
                </g>
                <g id="Group" opacity="0.4" transform="translate(102.288022, 63.526245)" fill="#000000" fill-rule="nonzero">
                    <path d="M67.833109,48.7213997 L16.7967699,48.7213997 C7.5796354,48.7213997 0.107671602,41.2494359 0.107671602,32.0323015 L0.107671602,0 L1.18438762,0 L1.18438762,32.0323015 C1.18438762,40.6547821 8.17428924,47.6446837 16.7967699,47.6446837 L67.833109,47.6446837 L67.833109,48.7213997 Z" id="Path"></path>
                </g>
                <g id="Group" opacity="0.4" transform="translate(56.527591, 99.596231)" fill="#000000" fill-rule="nonzero">
                    <path d="M113.59354,17.8196501 L35.4239569,17.8196501 C31.9154993,17.8196501 29.0713324,14.9754832 29.0713324,11.4670256 L29.0713324,6.6218035 C29.0713324,5.22254557 28.5154794,3.88059761 27.5260546,2.89117284 C26.5366299,1.90174807 25.1946819,1.34589502 23.795424,1.34589502 L0.323014805,1.34589502 L0.323014805,0.269179004 L23.795424,0.269179004 C27.3038816,0.269179004 30.1480485,3.11334587 30.1480485,6.6218035 L30.1480485,11.4670256 C30.1480485,14.3808294 32.5101531,16.7429341 35.4239569,16.7429341 L113.59354,16.7429341 L113.59354,17.8196501 Z" id="Path"></path>
                </g>
                <g id="Group" opacity="0.4" transform="translate(85.598923, 140.511440)" fill="#000000" fill-rule="nonzero">
                    <path d="M88.3983849,23.3109017 L0,23.3109017 L0,22.2341857 L88.3983849,22.2341857 C97.0208655,22.2341857 104.010767,15.2442841 104.010767,6.6218035 L104.010767,0.269179004 L105.087483,0.269179004 L105.087483,6.6218035 C105.087483,15.838938 97.6155194,23.3109017 88.3983849,23.3109017 L88.3983849,23.3109017 Z" id="Path"></path>
                </g>
                <g id="Group" transform="translate(162.045760, 78.061911)" fill-rule="nonzero">
                    <path d="M34.2934051,66.2718708 C21.4028722,66.2718708 9.78162416,58.5068011 4.84863078,46.5975016 C-0.0843626008,34.6882021 2.64236726,20.9800053 11.7573505,11.8650221 C20.8723337,2.75003886 34.5805305,0.0233090008 46.48983,4.95630238 C58.3991295,9.88929576 66.1641992,21.5105438 66.1641992,34.4010767 C66.1345623,51.9905396 51.882868,66.2422339 34.2934051,66.2718708 Z" id="Path" fill="#12A9FF"></path>
                    <g>
                        <path d="M34.2934051,67.3485868 C20.9673812,67.3485868 8.95352345,59.3211837 3.85387489,47.009543 C-1.24577367,34.6979022 1.57307544,20.5265908 10.9959973,11.1036689 C20.4189192,1.68074704 34.5902306,-1.13810207 46.9018714,3.96154649 C59.2135121,9.06119506 67.2409152,21.0750528 67.2409152,34.4010767 C67.2112752,52.5851926 52.477521,67.3189468 34.2934051,67.3485868 L34.2934051,67.3485868 Z" id="Path" fill="#12A9FF"></path>
                        <path d="M34.2934051,2.53028264 C51.8951586,2.53028264 66.1641992,16.7993232 66.1641992,34.4010767 C66.1641992,52.0028303 51.8951586,66.2718708 34.2934051,66.2718708 C16.6916516,66.2718708 2.42261104,52.0028303 2.42261104,34.4010767 C2.45224794,16.8116138 16.7039422,2.55991954 34.2934051,2.53028264 M34.2934051,0.376850606 C15.5023439,0.376850606 0.269179004,15.6100155 0.269179004,34.4010767 C0.269179004,53.1921379 15.5023439,68.4253028 34.2934051,68.4253028 C53.0844663,68.4253028 68.3176312,53.1921379 68.3176312,34.4010767 C68.3176312,15.6100155 53.0844663,0.376850606 34.2934051,0.376850606 L34.2934051,0.376850606 Z" id="Shape" fill="#FFFFFF"></path>
                    </g>
                    <circle id="Oval" fill="#FFFFFF" cx="34.2934051" cy="27.2409152" r="10.4441454"></circle>
                    <path d="M34.2395693,59.7039745 C42.5052277,59.7151463 50.2506918,55.6714105 54.9663526,48.8829071 C55.1163241,48.6855027 55.0930936,48.4067363 54.9125168,48.2368775 L54.9125168,48.2368775 C51.825656,45.1309994 47.8612882,43.045479 43.5531629,42.2611036 L43.5531629,42.2611036 C37.4088952,41.1839773 31.1240792,41.1839773 24.9798116,42.2611036 L24.9798116,42.2611036 C20.6478815,43.0215892 16.6594717,45.1098604 13.5666218,48.2368775 L13.5666218,48.2368775 C13.4065028,48.4160702 13.384535,48.6796836 13.512786,48.8829071 C18.2455857,55.679923 26.0109882,59.7235652 34.2934051,59.7039745" id="Path" fill="#FFFFFF"></path>
                </g>
                <g id="Group" transform="translate(118.977120, 183.580081)">
                    <g fill-rule="nonzero">
                        <circle id="Oval" fill="#00AB5E" cx="25.0874832" cy="25.1951548" r="22.8802153"></circle>
                        <path d="M25.0874832,50.2288022 C11.2617815,50.2288022 0.0538358008,39.0208565 0.0538358008,25.1951548 C0.0538358008,11.3694531 11.2617815,0.161507402 25.0874832,0.161507402 C38.9131849,0.161507402 50.1211306,11.3694531 50.1211306,25.1951548 C50.1211306,39.0208565 38.9131849,50.2288022 25.0874832,50.2288022 L25.0874832,50.2288022 Z M25.0874832,4.46837147 C13.6403968,4.46837147 4.36069987,13.7480684 4.36069987,25.1951548 C4.36069987,36.6422411 13.6403968,45.9219381 25.0874832,45.9219381 C36.5345695,45.9219381 45.8142665,36.6422411 45.8142665,25.1951548 C45.7846808,13.7603457 36.5222923,4.49795715 25.0874832,4.46837147 Z" id="Shape" fill="#FFFFFF"></path>
                    </g>
                    <g id="prefix_magnifyingglass-a" transform="translate(12.382234, 11.843876)" fill="#FFFFFF">
                        <path d="M24.2261104,22.5033647 L17.2812921,15.5585464 C20.1884253,11.628533 19.5962315,6.24495289 16.6890983,3.39165545 C14.3749192,0.781246559 10.7959829,-0.317051158 7.41590121,0.545912907 C4.0358195,1.40887697 1.42139198,4.08839396 0.641792988,7.48867113 C-0.137806009,10.8889483 1.04815303,14.4397994 3.71467026,16.6890983 C5.4897011,18.3168497 7.8207106,19.2030186 10.2288022,19.1655451 C12.2343069,19.0257833 14.1581502,18.3160158 15.7738896,17.1197847 L22.5572005,23.9030956 C22.9878869,24.333782 23.795424,24.6567968 24.2799462,24.1722746 C24.5243026,23.9598137 24.6600677,23.6486628 24.6496278,23.3250261 C24.6391879,23.0013894 24.4836517,22.6996354 24.2261104,22.5033647 Z M10.013459,16.8506057 C8.13549394,16.8794909 6.32710768,16.1405804 5.00672948,14.8048452 C2.2557179,12.0338675 2.2557179,7.56236398 5.00672948,4.79138627 C7.77128811,2.07581743 12.201794,2.07581743 14.9663526,4.79138627 C16.3272339,6.09898875 17.0870908,7.91095515 17.0659489,9.79811575 C17.0744401,11.6827828 16.3165886,13.489967 14.9663526,14.8048452 C13.6590099,16.1270623 11.8728138,16.864839 10.013459,16.8506057 L10.013459,16.8506057 Z" id="Shape"></path>
                        <path d="M23.6877524,24.8183042 C23.1385385,24.7963602 22.618504,24.5652337 22.2341857,24.1722746 L15.7200538,17.6581427 C14.0992237,18.7821855 12.1982978,19.434464 10.2288022,19.5423957 C7.71927615,19.5867874 5.28940348,18.6611217 3.44549125,16.9582773 C1.53501405,15.1705629 0.428634531,12.6862649 0.377937525,10.0702993 C0.327240519,7.45433382 1.33653481,4.92903436 3.17631225,3.06864065 C4.97169721,1.21960312 7.43620402,0.171702585 10.013459,0.161507402 C12.648443,0.172850095 15.1690714,1.23926979 17.0121131,3.12247645 C20.1345895,6.19111709 20.4576043,11.6823688 17.7658143,15.5047106 L24.5491252,22.2341857 C24.8675609,22.5497344 25.0591235,22.9711719 25.0874832,23.4185734 C25.0534898,23.833445 24.8606265,24.2191717 24.5491252,24.4952894 C24.314137,24.7095839 24.0057042,24.8252462 23.6877524,24.8183042 Z M15.8277254,16.5814266 L22.8263795,23.6339166 C23.0955585,23.9030956 23.6877524,24.2261104 24.0107672,23.9030956 C24.1855987,23.7746142 24.2842615,23.5669523 24.2734268,23.3502587 C24.2625921,23.1335651 24.143707,22.9367805 23.9569314,22.8263795 L16.7429341,15.6123822 L16.9582773,15.2893674 C19.9192463,11.359354 18.9502019,6.24495289 16.4199192,3.71467026 C14.7513388,1.95960151 12.4351159,0.966934563 10.013459,0.969041058 C7.65215657,1.00278159 5.39529248,1.94796398 3.71467026,3.60699865 C2.05006791,5.33043965 1.1422814,7.64704746 1.19282014,10.0425841 C1.24335889,12.4381207 2.24804136,14.7143811 3.98384926,16.3660834 C5.66459559,17.9249542 7.88291985,18.7737043 10.1749664,18.7348587 C12.1037546,18.6283412 13.9580223,17.954062 15.5047106,16.7967699 L15.8277254,16.5814266 Z M10.013459,17.2814297 C8.01209055,17.2934664 6.09046262,16.4976407 4.68371467,15.0740242 C1.83942858,12.1317688 1.83942858,7.46446274 4.68371467,4.52220727 C6.09938056,3.11833065 8.01989884,2.34236366 10.013459,2.36877524 C11.9850168,2.37419407 13.8771189,3.14648062 15.2893674,4.52220727 C16.6901804,5.91788894 17.4668947,7.82083888 17.4427995,9.79811575 C17.4571455,11.7778106 16.6807514,13.6813524 15.2859218,15.0862894 C13.8910923,16.4912264 11.9932058,17.2814297 10.013459,17.2814297 L10.013459,17.2814297 Z M10.013459,3.17631225 C8.23358084,3.13600342 6.517198,3.83816003 5.27590848,5.11440108 C3.39055304,7.02914646 2.83704253,9.88766508 3.87139916,12.3677702 C4.9057558,14.8478753 7.32631264,16.4660246 10.013459,16.473755 C12.6908297,16.4446047 15.0917374,14.8185683 16.1123862,12.3432017 C17.1330351,9.86783506 16.5759215,7.02214066 14.6971736,5.11440108 C13.4651542,3.85728448 11.7735307,3.15730237 10.013459,3.17631225 L10.013459,3.17631225 Z" id="Shape" fill-rule="nonzero"></path>
                    </g>
                </g>
                <g id="Group" transform="translate(76.985195, 13.458950)">
                    <g fill-rule="nonzero">
                        <circle id="Oval" fill="#5D5EFF" cx="27.833109" cy="27.6177658" r="25.7873486"></circle>
                        <path d="M27.833109,55.0201884 C12.6991689,55.0201884 0.430686406,42.7517059 0.430686406,27.6177658 C0.430686406,12.4838257 12.6991689,0.215343203 27.833109,0.215343203 C42.9670491,0.215343203 55.2355316,12.4838257 55.2355316,27.6177658 C55.2059103,42.7394194 42.9547626,54.9905671 27.833109,55.0201884 Z M27.833109,3.49932705 C18.0514427,3.49932705 9.23396747,9.39457896 5.495735,18.4337501 C1.75750254,27.4729212 3.83546617,37.8740579 10.7598554,44.7830253 C17.6842446,51.6919927 28.0899886,53.7467602 37.1208023,49.9883829 C46.1516159,46.2300055 52.027169,37.3994079 52.005444,27.6177658 C51.9756976,14.2888162 41.1620917,3.49932705 27.833109,3.49932705 L27.833109,3.49932705 Z" id="Shape" fill="#FFFFFF"></path>
                    </g>
                    <path d="M14.2664872,37.9542396 C13.5529026,37.9542396 12.974428,37.375765 12.974428,36.6621803 L12.974428,18.5733513 C12.974428,17.8597667 13.5529026,17.2812921 14.2664872,17.2812921 L40.1076716,17.2812921 C40.8212562,17.2812921 41.3997308,17.8597667 41.3997308,18.5733513 L41.3997308,36.6621803 C41.4151844,37.009363 41.2840266,37.3470589 41.0382884,37.5927971 C40.7925501,37.8385354 40.4548542,37.9696932 40.1076716,37.9542396 L14.2664872,37.9542396 Z M38.8156124,35.3701211 L38.8156124,25.4643338 L27.1870794,30.2557201 L15.5585464,25.4643338 L15.5585464,35.3701211 L38.8156124,35.3701211 Z" id="prefix_mail-a" fill="#FFFFFF"></path>
                </g>
                <g id="Group" transform="translate(0.000000, 66.218035)">
                    <g fill-rule="nonzero">
                        <circle id="Oval" fill="#008F88" transform="translate(34.917739, 35.147630) rotate(-70.100000) translate(-34.917739, -35.147630) " cx="34.9177387" cy="35.1476299" r="27.0794078"></circle>
                        <path d="M34.9394347,64.4415033 C23.0843102,64.4632261 12.3854142,57.335749 7.83859111,46.3871942 C3.291768,35.4386394 5.79398826,22.8288735 14.1768414,14.4460204 C22.5596945,6.06316727 35.1694604,3.56094701 46.1180152,8.10777012 C57.06657,12.6545932 64.1940471,23.3534892 64.1723243,35.2086137 C64.1426463,51.341177 51.071998,64.4118253 34.9394347,64.4415033 L34.9394347,64.4415033 Z M34.9394347,10.2287437 C24.8311735,10.2070171 15.7061181,16.2793211 11.8227496,25.6118914 C7.93938099,34.9444617 10.0632387,45.6975422 17.2031607,52.8528852 C24.3430827,60.0082283 35.091556,62.1552807 44.4324829,58.2920562 C53.7734099,54.4288316 59.8654105,45.3168985 59.8654105,35.2086137 C59.8654105,21.4336416 48.7143748,10.2584896 34.9394347,10.2287437 Z" id="Shape" fill="#FFFFFF"></path>
                    </g>
                    <path d="M29.5020188,46.1372813 C29.0876451,46.1502241 28.6904293,45.9714769 28.4253028,45.6527591 L23.8492598,41.1305518 L19.8115747,45.1682369 C19.528049,45.4576091 19.1399798,45.6206774 18.7348587,45.6206774 C18.3297375,45.6206774 17.9416684,45.4576091 17.6581427,45.1682369 C17.3543367,44.8927099 17.181069,44.5016589 17.181069,44.0915209 C17.181069,43.6813829 17.3543367,43.2903319 17.6581427,43.0148048 L22.7725437,37.846568 C23.0596585,37.5651716 23.4472826,37.4101219 23.8492598,37.4158816 L23.8492598,37.4158816 C24.2491067,37.4211992 24.6327641,37.5746622 24.9259758,37.846568 L28.909825,41.884253 L32.9475101,31.9246299 C33.1238218,31.4323315 33.5598422,31.0793626 34.0780619,31.0094213 C34.5618663,30.8739912 35.0808252,31.0192997 35.4239569,31.3862719 L41.9919246,37.9004038 L47.7523553,23.6339166 C47.896182,23.2507265 48.189645,22.942495 48.5653174,22.7800421 C48.9409898,22.6175891 49.3665716,22.6148824 49.7442799,22.7725437 C50.12747,22.9163704 50.4357015,23.2098334 50.5981544,23.5855058 C50.7606074,23.9611782 50.7633141,24.38676 50.6056528,24.7644684 L43.9838493,41.1843876 C43.8122483,41.6859447 43.3898092,42.0605016 42.8713149,42.1708195 C42.3528207,42.2811375 41.8144891,42.1109998 41.4535666,41.7227456 L34.9394347,35.2086137 L30.9017497,45.1682369 C30.7156143,45.6534823 30.2845647,46.0024272 29.7711978,46.0834455 L29.5020188,46.0834455" id="prefix_analytics-a" fill="#FFFFFF"></path>
                </g>
                <g id="Group" transform="translate(267.025572, 14.535666)">
                    <g fill-rule="nonzero">
                        <circle id="Oval" fill="#21D87D" transform="translate(35.005335, 35.125323) rotate(-70.100000) translate(-35.005335, -35.125323) " cx="35.0053353" cy="35.1253234" r="27.0794078"></circle>
                        <path d="M35.1009421,64.4416536 C23.2458176,64.4632261 12.5469216,57.335749 8.00009851,46.3871942 C3.4532754,35.4386394 5.95549566,22.8288735 14.3383488,14.4460204 C22.7212019,6.06316727 35.3309678,3.56094701 46.2795226,8.10777012 C57.2280774,12.6545932 64.3555545,23.3534892 64.333982,35.2086137 C64.3625297,42.9704222 61.2918825,50.422624 55.8034175,55.9110891 C50.3149524,61.3995541 42.8627506,64.4702013 35.1009421,64.4416536 Z M35.1009421,10.2287437 C24.9926809,10.2070171 15.8676255,16.2793211 11.984257,25.6118914 C8.10088839,34.9444617 10.2247461,45.6975422 17.3646681,52.8528852 C24.5045901,60.0082283 35.2530634,62.1552807 44.5939903,58.2920562 C53.9349173,54.4288316 60.0269179,45.3168985 60.0269179,35.2086137 C60.0269179,21.4336416 48.8758823,10.2584896 35.1009421,10.2287437 Z" id="Shape" fill="#FFFFFF"></path>
                    </g>
                    <path d="M35.1009421,36.9313594 C33.3169806,36.9313594 31.8707941,35.4851728 31.8707941,33.7012113 C31.8707941,31.9172498 33.3169806,30.4710633 35.1009421,30.4710633 C36.8849036,30.4710633 38.3310902,31.9172498 38.3310902,33.7012113 C38.3310902,35.4851728 36.8849036,36.9313594 35.1009421,36.9313594 M35.1009421,22.7187079 C29.035473,22.7187079 24.1184388,27.6357422 24.1184388,33.7012113 C24.1184388,38.8156124 31.4939435,47.8600269 33.9165545,50.551817 C34.6702557,51.359354 35.4239569,51.3055182 36.1776581,50.551817 C38.5464334,47.9676985 46.0834455,38.8694482 46.0834455,33.7012113 C46.0834455,27.6357422 41.1664112,22.7187079 35.1009421,22.7187079" id="prefix_mappin-fill-a" fill="#FFFFFF"></path>
                </g>
                <g id="Group" transform="translate(347.779273, 87.752355)">
                    <g fill-rule="nonzero">
                        <circle id="Oval" fill="#FFA700" cx="25.1951548" cy="25.1951548" r="22.8802153"></circle>
                        <path d="M25.1951548,50.2288602 C15.0384498,50.2505744 5.87073461,44.1461997 1.97386771,34.7667776 C-1.92299919,25.3873554 0.21995564,14.5837386 7.40184714,7.40184714 C14.5837386,0.21995564 25.3873554,-1.92299919 34.7667776,1.97386771 C44.1461997,5.87073461 50.2505744,15.0384498 50.2288602,25.1951548 C50.2288602,39.0208565 39.0208565,50.2288602 25.1951548,50.2288602 Z M25.1951548,4.41446544 C16.7853141,4.39274844 9.19143933,9.44194679 5.95802481,17.2053819 C2.72461029,24.9688171 4.48919875,33.9157476 10.4281561,39.8701309 C16.3671135,45.8245141 25.3094366,47.6123053 33.0812332,44.3990402 C40.8530298,41.1857751 45.9220081,33.6050237 45.9220081,25.1951548 C45.9362405,19.6887483 43.7588477,14.4029687 39.8702705,10.5042914 C35.9816934,6.60561405 30.7015799,4.41446544 25.1951548,4.41446544 L25.1951548,4.41446544 Z" id="Shape" fill="#FFFFFF"></path>
                    </g>
                    <path d="M28.2099596,34.8855989 C28.2099596,36.5506297 26.8601855,37.9004038 25.1951548,37.9004038 C23.530124,37.9004038 22.1803499,36.5506297 22.1803499,34.8855989 L28.2099596,34.8855989 L28.2099596,34.8855989 Z M25.1951548,10.0672948 C26.2060663,10.0672948 27.025572,10.8868005 27.025572,11.897712 L27.025572,11.897712 L27.025572,12.0592194 C31.0263413,12.9386804 33.8864239,16.4690949 33.9165545,20.5652759 L33.9165545,20.5652759 L33.9165545,20.8344549 C33.8896094,22.7597849 33.9975451,24.684638 34.2395693,26.5948856 L34.6164199,28.2099596 L35.1547779,29.2866756 C35.5203228,29.9519197 35.9932686,30.5521971 36.5545087,31.0632571 C36.730341,31.1704465 36.8780057,31.3181112 36.9851952,31.4939435 L36.9851952,31.4939435 C37.2016313,31.7057245 37.3188837,31.9988555 37.30821,32.3014805 C37.30888,33.0539852 36.714263,33.672269 35.9623149,33.7012113 L14.4279946,33.7012113 C13.6760465,33.672269 13.0815428,33.0539852 13.0820992,32.3014805 C13.0820992,32.0102689 13.1765516,31.7269127 13.3512786,31.4939435 L13.3512786,31.4939435 C13.4895154,31.3261633 13.6529707,31.1808697 13.8358008,31.0632571 C14.3970409,30.5521971 14.8699868,29.9519197 15.2355316,29.2866756 L15.7200538,28.2099596 C15.8974805,27.6812074 16.0413291,27.1417753 16.1507402,26.5948856 C16.3654204,24.8083833 16.4732838,23.0106604 16.473755,21.2113055 L16.473755,20.5652759 C16.5038856,16.4690949 19.3639683,12.9386804 23.3647376,12.0592194 L23.3647376,12.0592194 L23.3647376,11.897712 C23.3647376,10.8868005 24.1842433,10.0672948 25.1951548,10.0672948 L25.1951548,10.0672948 Z" id="prefix_bell-fill-a" fill="#FFFFFF"></path>
                </g>
            </g>
        </g>
    </g>
</svg>