<svg xmlns="http://www.w3.org/2000/svg" width="340" height="280" viewBox="0 0 340 280">
  <g id="Layer_2" data-name="Layer 2">
    <g id="box_transparency" data-name="box transparency">
      <rect width="340" height="280" fill="none"/>
    </g>
    <g id="Layer_3" data-name="Layer 3">
      <g>
        <g opacity="0.7">
          <path d="M178.5,159.9a11.6,11.6,0,0,1-6.2-1.9L67.5,90a11.5,11.5,0,0,1-3.3-15.9l40.4-62.3a11.6,11.6,0,0,1,15.9-3.3l104.7,68a11.6,11.6,0,0,1,3.4,15.9l-40.4,62.2a11.4,11.4,0,0,1-7.3,5A9.9,9.9,0,0,1,178.5,159.9ZM114.2,9.6l-1.8.2a8.4,8.4,0,0,0-5.3,3.7L66.7,75.7a8.5,8.5,0,0,0,2.5,11.8l104.7,68a9,9,0,0,0,6.4,1.2,8.9,8.9,0,0,0,5.4-3.7l40.4-62.2A8.6,8.6,0,0,0,223.6,79L118.8,11A8.6,8.6,0,0,0,114.2,9.6Z" fill="#97b3c6"/>
        </g>
        <path d="M108.7,63.7a26.5,26.5,0,0,1,3.7-4.9s1.4-1.3,2.5-1.2h.4l.6.3,3.9,2.4a3.7,3.7,0,0,0,2.5.3h.9a4.7,4.7,0,0,1,3.3.8,5.2,5.2,0,0,1,2.5,3.1,5.3,5.3,0,0,1-1.9,5.8,1.9,1.9,0,0,1-1,.5c-2.6.7-5.2-2.2-5.4-2.5l-6.5-4a6,6,0,0,0-4.9-.7l-.6.2" fill="#97b3c6"/>
        <g opacity="0.7">
          <path d="M112.3,82.7a8.4,8.4,0,0,1-4.6-1.3l-.8-.5a8.9,8.9,0,0,1-3.3-11.5l3.8-6.5a1.5,1.5,0,0,1,2-.5,1.5,1.5,0,0,1,.6,2l-3.7,6.4a5.9,5.9,0,0,0,2.2,7.6l.8.5a5.6,5.6,0,0,0,7.5-1.6l5.4-7.7a1.5,1.5,0,0,1,2.1-.4,1.5,1.5,0,0,1,.4,2.1L119.3,79A8.6,8.6,0,0,1,112.3,82.7Z" fill="#97b3c6"/>
        </g>
        <g opacity="0.7">
          <path d="M99.6,80.8l-1.5-.2-10.3-3a1.5,1.5,0,0,1-1-1.9,1.4,1.4,0,0,1,1.8-1l10.3,3a2.4,2.4,0,0,0,2.8-1.1,1.4,1.4,0,0,1,2-.4,1.6,1.6,0,0,1,.5,2.1A5.4,5.4,0,0,1,99.6,80.8Z" fill="#97b3c6"/>
        </g>
        <g opacity="0.7">
          <path d="M111.8,89.5a1.4,1.4,0,0,1-1.2-.6,5.6,5.6,0,0,1-.4-6.5,1.5,1.5,0,0,1,2.1-.4,1.6,1.6,0,0,1,.5,2.1,2.4,2.4,0,0,0,.1,2.9,1.4,1.4,0,0,1-.2,2.1A1.2,1.2,0,0,1,111.8,89.5Z" fill="#97b3c6"/>
        </g>
        <g opacity="0.7">
          <path d="M110.9,87.6h-.1l-5.7-.4a3.4,3.4,0,0,1-3-1.8L99,79.9a1.5,1.5,0,0,1,.5-2,1.5,1.5,0,0,1,2.1.6l3.1,5.4a.9.9,0,0,0,.6.4l5.7.3a1.5,1.5,0,0,1,1.4,1.6A1.5,1.5,0,0,1,110.9,87.6Z" fill="#97b3c6"/>
        </g>
        <g opacity="0.7">
          <path d="M220.6,102.8l-.8-.2L106.6,29a1.5,1.5,0,0,1-.5-2,1.6,1.6,0,0,1,2.1-.5l113.2,73.6a1.5,1.5,0,0,1-.8,2.7Z" fill="#97b3c6"/>
        </g>
        <path d="M145.7,81h55.6a1.7,1.7,0,0,1,1.7,1.7v6.6a4.1,4.1,0,0,1-4.1,4.1H142.7a1.7,1.7,0,0,1-1.7-1.7v-6a4.7,4.7,0,0,1,4.7-4.7Z" transform="matrix(0.84, 0.54, -0.54, 0.84, 75.23, -79.62)" fill="#e0e4e9"/>
        <path d="M137.7,90.8h37.6a1.7,1.7,0,0,1,1.7,1.7v3.8a3.6,3.6,0,0,1-3.6,3.6H135.6a1.7,1.7,0,0,1-1.7-1.7V94.6a3.9,3.9,0,0,1,3.9-3.9Z" transform="translate(77 -69.3) rotate(33)" fill="#e0e4e9"/>
        <path d="M128.3,109.3h63.1a1.7,1.7,0,0,1,1.7,1.7v3.3a3.6,3.6,0,0,1-3.6,3.6H126.2a1.7,1.7,0,0,1-1.7-1.7v-3.1a3.9,3.9,0,0,1,3.9-3.9Z" transform="translate(87.5 -68.2) rotate(33)" fill="#e0e4e9"/>
        <path d="M121.1,120.4h63.1a1.7,1.7,0,0,1,1.7,1.7v3.3a3.6,3.6,0,0,1-3.6,3.6H119a1.7,1.7,0,0,1-1.7-1.7v-3.1a3.9,3.9,0,0,1,3.9-3.9Z" transform="translate(92.4 -62.4) rotate(33)" fill="#e0e4e9"/>
        <g opacity="0.7">
          <path d="M98.8,97.1a1.6,1.6,0,0,1-.9-.3L84.4,88A4.8,4.8,0,0,1,83,81.4l25.3-39A4.8,4.8,0,0,1,115,41l25,16.2a4.9,4.9,0,0,1,1.5,6.7L122.9,92.4a1.6,1.6,0,0,1-2.1.5,1.5,1.5,0,0,1-.4-2.1l18.5-28.6a1.8,1.8,0,0,0-.5-2.5l-25-16.2a1.8,1.8,0,0,0-2.5.5L85.5,83a1.8,1.8,0,0,0,.6,2.5l13.5,8.8a1.5,1.5,0,0,1,.4,2.1A1.5,1.5,0,0,1,98.8,97.1Z" fill="#97b3c6"/>
        </g>
      </g>
      <g>
        <g opacity="0.5">
          <polygon points="210.8 144.3 240.5 38.8 185.5 80.9 210.8 144.3" fill="#c7cdd2" opacity="0.7"/>
        </g>
        <g opacity="0.5">
          <path d="M260.2,98.7,240.6,38.3,210.7,144.6l48.2-41.3A4.4,4.4,0,0,0,260.2,98.7Z" fill="#c7cdd2" opacity="0.7"/>
        </g>
        <g>
          <rect x="173.5" y="56.1" width="83.9" height="64.94" transform="translate(71.8 272) rotate(-74.3)" fill="#fff"/>
          <g opacity="0.6">
            <path d="M235.9,138.7l-64-18L195,38.5l64,18Zm-62.1-19,61,17.1,22.3-79.3L196,40.4Z" fill="#97b3c6"/>
          </g>
        </g>
        <rect x="211.5" y="99.7" width="41.8" height="4.93" transform="translate(393.6 -93.9) rotate(105.7)" fill="#e0e4e9"/>
        <rect x="202.5" y="97.2" width="41.8" height="4.93" transform="translate(379.7 -88.5) rotate(105.7)" fill="#e0e4e9"/>
        <rect x="186.9" y="86" width="59.8" height="4.93" transform="translate(360.5 -96.3) rotate(105.7)" fill="#e0e4e9"/>
        <rect x="177.8" y="83.4" width="59.8" height="4.93" transform="translate(346.6 -90.8) rotate(105.7)" fill="#e0e4e9"/>
        <rect x="168.8" y="80.9" width="59.8" height="4.93" transform="translate(332.7 -85.4) rotate(105.7)" fill="#e0e4e9"/>
        <path d="M192,75.4l48.6-37.1L181.9,21.8a6.5,6.5,0,0,0-7.9,4.5l-26.4,93.9a6.3,6.3,0,0,0,4.4,7.9l58.2,16.4c.2,0,.4-.2.3-.4L188.6,87.7A10.7,10.7,0,0,1,192,75.4Z" fill="#fff"/>
        <g opacity="0.7">
          <path d="M210.1,145.9h-.5l-58-16.3a7.9,7.9,0,0,1-5.5-9.7l26.4-94a7.9,7.9,0,0,1,9.7-5.5l58.7,16.5a1.5,1.5,0,0,1,1,1.9,1.4,1.4,0,0,1-1.8,1L181.4,23.2a5.3,5.3,0,0,0-3.7.4,5,5,0,0,0-2.3,3l-26.4,94a4.9,4.9,0,0,0,3.4,6l55.7,15.7L187.3,88.1a12.3,12.3,0,0,1,4-14.1l42.2-32.1a1.5,1.5,0,1,1,1.8,2.4L193.1,76.4a9.2,9.2,0,0,0-3,10.6l21.6,56.5a1.7,1.7,0,0,1-.3,1.8A1.6,1.6,0,0,1,210.1,145.9Z" fill="#97b3c6"/>
        </g>
        <g opacity="0.5">
          <path d="M204.4,67a1.7,1.7,0,0,1-1.4-.9L187,29.5a1.4,1.4,0,0,1,.8-1.9,1.5,1.5,0,0,1,2,.7l16,36.6a1.7,1.7,0,0,1-.8,2Z" fill="#97b3c6"/>
        </g>
        <g opacity="0.5">
          <path d="M169.4,121.3a1.6,1.6,0,0,1-1.2-.6,1.5,1.5,0,0,1,.4-2.1l24.6-17.3a1.5,1.5,0,1,1,1.7,2.5L170.3,121Z" fill="#97b3c6"/>
        </g>
        <g>
          <path d="M234.7,73.5l2.7-1.8,1.9.6a2.9,2.9,0,0,0,3.6-1.9,2.8,2.8,0,0,0-1.9-3.5l-2-.6-1.2-3,3.9,1.2a5.5,5.5,0,0,1,3.6,6.7,5.4,5.4,0,0,1-6.7,3.5Z" fill="#97b3c6"/>
          <rect x="226.6" y="62.8" width="14.1" height="9.56" rx="1.3" transform="translate(367 -135.8) rotate(107.1)" fill="#97b3c6"/>
        </g>
      </g>
      <g>
        <g>
          <path d="M35.5,126.7a4.8,4.8,0,0,1-4.4-3.1L21.5,96.4a6.8,6.8,0,0,1,4.2-8.7L72.8,71a4,4,0,0,1,1.5-.3,4.8,4.8,0,0,1,4.5,3.2L88.4,101a6.9,6.9,0,0,1-4.2,8.7L79,111.6c.4.4,1.2,1.3,2.9,2.8l.4.3a1.8,1.8,0,0,1,.5,1.6,2,2,0,0,1-1.2,1.3,8.4,8.4,0,0,1-2.7.4,7.6,7.6,0,0,1-2.1-.3,34,34,0,0,1-5.9-2.6,1.1,1.1,0,0,0-.8-.3h-.6L37.1,126.4A4.1,4.1,0,0,1,35.5,126.7Z" fill="#97b3c6"/>
          <path d="M74.3,72.2a3.3,3.3,0,0,1,3.1,2.2L87,101.5a5.3,5.3,0,0,1-3.3,6.8l-5.5,2s-1.1.3-1,1.3,3.7,3.8,4,4.2.1.3-.1.4l-2.2.3-1.7-.2a28.7,28.7,0,0,1-5.5-2.5,3.3,3.3,0,0,0-1.6-.5l-1.1.2L36.6,125l-1.1.2a3.2,3.2,0,0,1-3-2.1L22.9,95.9a5.4,5.4,0,0,1,3.3-6.8L73.3,72.4l1-.2m0-3h0a6.5,6.5,0,0,0-2,.4L25.2,86.3a8.2,8.2,0,0,0-5.1,10.6l9.6,27.2a6.3,6.3,0,0,0,5.8,4.1,5.2,5.2,0,0,0,2.1-.4L70,116.4a.1.1,0,0,1,.1-.1.1.1,0,0,0,.1.1,39.7,39.7,0,0,0,6.1,2.8,11.5,11.5,0,0,0,2.6.3A8.4,8.4,0,0,0,82,119a3,3,0,0,0,2.2-2.3,3.3,3.3,0,0,0-.9-3.1l-.4-.4-1.1-1,2.9-1.1a8.3,8.3,0,0,0,4.8-4.2,8.8,8.8,0,0,0,.3-6.4L80.2,73.4a6.3,6.3,0,0,0-5.9-4.2Z" fill="#fff"/>
        </g>
        <circle cx="68.5" cy="94.6" r="5.4" fill="#fff"/>
        <circle cx="55.2" cy="99.3" r="5.4" fill="#fff"/>
        <circle cx="41.9" cy="104" r="5.4" fill="#fff"/>
      </g>
      <g>
        <g>
          <path d="M215.7,133a27.9,27.9,0,0,1-13.8-3.6,28.2,28.2,0,0,1-13.1-16.9,27.9,27.9,0,0,1,26.9-35.2,29,29,0,0,1,13.8,3.6A27.9,27.9,0,0,1,215.7,133Z" fill="#97b3c6" fill-rule="evenodd"/>
          <path d="M215.7,78.8h0a26.4,26.4,0,1,1-22.9,13.3,26.5,26.5,0,0,1,22.9-13.3m0-3a29.3,29.3,0,1,0,14.5,3.8,29.3,29.3,0,0,0-14.5-3.8Z" fill="#fff"/>
        </g>
        <path id="prefix_analytics-a" data-name="prefix  analytics-a" d="M208.3,94.2a1.6,1.6,0,0,1,1-.8l6.8-1.8-1.7-6a1.7,1.7,0,0,1,1.1-2.1,1.8,1.8,0,0,1,2.1,1.2l2.1,7.6a1.3,1.3,0,0,1-.2,1.2h0a1.4,1.4,0,0,1-1,.8l-5.9,1.6,7.2,9.2a1.4,1.4,0,0,1,.3,1.5,1.7,1.7,0,0,1-1.1,1.1l-9.7,2.7,10.4,13a1.6,1.6,0,0,1-.3,2.4,1.7,1.7,0,0,1-2.3-.3l-11.9-15.1a1.4,1.4,0,0,1-.3-1.5,1.9,1.9,0,0,1,1.2-1.1l9.6-2.6L208.5,96a1.4,1.4,0,0,1-.3-1.5v-.3" fill="#fff" fill-rule="evenodd"/>
      </g>
      <g>
        <g>
          <path d="M134.7,138.9A23.3,23.3,0,1,1,158,115.6,23.3,23.3,0,0,1,134.7,138.9Z" fill="#97b3c6" fill-rule="evenodd"/>
          <path d="M134.7,93.8a21.8,21.8,0,1,1-21.8,21.8,21.9,21.9,0,0,1,21.8-21.8m0-3a24.8,24.8,0,1,0,24.8,24.8,24.8,24.8,0,0,0-24.8-24.8Z" fill="#fff"/>
        </g>
        <path id="prefix_piechart-fill-a" data-name="prefix  piechart-fill-a" d="M131.8,103.1a14,14,0,0,0-12.4,14.3,14,14,0,0,0,27.9,1.2,1.4,1.4,0,0,0-1.4-1.6H134.8a1.4,1.4,0,0,1-1.4-1.4V104.5a1.4,1.4,0,0,0-1.6-1.4m4.4-1.5v11.2a1.4,1.4,0,0,0,1.4,1.4h11.1a1.5,1.5,0,0,0,1.4-1.7,14,14,0,0,0-12.4-12.3,1.4,1.4,0,0,0-1.5,1.4" fill="#fff" fill-rule="evenodd"/>
      </g>
      <g>
        <g opacity="0.8">
          <path d="M98.8,273.3a23.3,23.3,0,0,1-19.9-11.2,23.1,23.1,0,0,1-2.7-17.6,22.8,22.8,0,0,1,10.4-14.4,23.2,23.2,0,0,1,32.1,7.7,23.6,23.6,0,0,1,2.8,17.6,23.5,23.5,0,0,1-22.7,17.9Z" fill="#97b3c6" fill-rule="evenodd"/>
          <path d="M98.8,228.1h0a21.5,21.5,0,0,1,18.6,10.5A21,21,0,0,1,120,255a21.6,21.6,0,0,1-9.8,13.6,21.8,21.8,0,1,1-22.8-37.2,22.2,22.2,0,0,1,11.4-3.3m0-3a24.4,24.4,0,0,0-12.9,3.7A24.8,24.8,0,1,0,120,237a25.1,25.1,0,0,0-21.2-11.9Z" fill="#fff"/>
        </g>
        <path id="prefix_bell-fill-a" data-name="prefix  bell-fill-a" d="M106.1,241.7a3.3,3.3,0,0,1,4.5,1,3.5,3.5,0,0,1-1.1,4.6h0ZM84.9,258.5a2,2,0,0,1,.6-2.7h.2a9.5,9.5,0,0,1,3.9-11.2h.3a49.8,49.8,0,0,0,5.1-3.6l1.3-1.3a5.2,5.2,0,0,0,.7-1.1,6.6,6.6,0,0,0,.8-2.3,1.5,1.5,0,0,1,.1-.6h0a2.7,2.7,0,0,1,.7-.8,1.5,1.5,0,0,1,2,.5h0L112.7,255h.1a1.5,1.5,0,0,1-.5,2,1.8,1.8,0,0,1-1,.2h0l-.6-.2a12.7,12.7,0,0,0-2.4-.3l-1.3.2-1.7.5a29,29,0,0,0-5.2,2.8l-.4.2h-.2a9.5,9.5,0,0,1-11.8-1.5h-.1A2,2,0,0,1,84.9,258.5Z" fill="#fff" fill-rule="evenodd"/>
      </g>
      <g>
        <g opacity="0.8">
          <g>
            <path d="M53.6,60.2a26.1,26.1,0,0,1-17.8-7A26.4,26.4,0,0,1,53.6,7.3a26.9,26.9,0,0,1,17.9,6.9,26.5,26.5,0,0,1-17.9,46Z" fill="#97b3c6" fill-rule="evenodd"/>
            <path d="M53.6,5.8v3h0A25,25,0,0,1,72,50.6a25.1,25.1,0,0,1-18.4,8.1,24.5,24.5,0,0,1-16.8-6.6,24.9,24.9,0,0,1-1.6-35.2A25.1,25.1,0,0,1,53.6,8.8v-3m0,0A27.9,27.9,0,0,0,34.7,54.3,28,28,0,1,0,53.6,5.8Z" fill="#fff"/>
          </g>
        </g>
        <path id="prefix_mail-a" data-name="prefix  mail-a" d="M35.7,32.5a1.4,1.4,0,0,1-.1-1.9L48.9,16.1a1.4,1.4,0,0,1,2-.1L71.5,34.9a1.4,1.4,0,0,1,.1,2L58.4,51.4a1.5,1.5,0,0,1-2,.1ZM57.2,48.4l7.3-7.9L51.7,35.8,45.9,23.5l-7.3,7.9Z" fill="#fff" fill-rule="evenodd"/>
      </g>
      <g>
        <path d="M225.6,271H129.4a3.9,3.9,0,0,1-4-3.5q-9.3-73.5-18.7-147a4,4,0,0,1,4-4.5H244.3a4,4,0,0,1,4,4.5q-9.5,73.5-18.7,147A3.9,3.9,0,0,1,225.6,271Z" fill="#fff"/>
        <path d="M225.6,272.5H129.4a5.6,5.6,0,0,1-5.5-4.8l-18.7-147a5.2,5.2,0,0,1,1.4-4.3,5.3,5.3,0,0,1,4.1-1.9H244.3a5.3,5.3,0,0,1,4.1,1.9,5.2,5.2,0,0,1,1.4,4.3l-18.7,147A5.6,5.6,0,0,1,225.6,272.5Zm-114.9-155a2.7,2.7,0,0,0-1.9.8,2.5,2.5,0,0,0-.6,2l18.7,147a2.4,2.4,0,0,0,2.5,2.2h96.2a2.4,2.4,0,0,0,2.5-2.2l18.7-147a2.5,2.5,0,0,0-.6-2,2.7,2.7,0,0,0-1.9-.8Z" fill="#ff0080"/>
      </g>
      <g>
        <path d="M151.2,259h0c-2.1,0-4-2-4.3-4.5q-6-58-11.9-116c-.3-2.5,1.9-4.5,4.7-4.5h0c2.9,0,5.4,2,5.6,4.5l9.3,116C154.8,257,153.3,259,151.2,259Z" fill="#ff0080"/>
        <path d="M177.5,259h0c-2.1,0-3.8-2-3.8-4.5-.5-38.7-.9-77.3-1.4-116,0-2.5,2.3-4.5,5.2-4.5h0c2.9,0,5.2,2,5.2,4.5-.5,38.7-.9,77.3-1.4,116C181.3,257,179.6,259,177.5,259Z" fill="#ff0080"/>
        <path d="M203.7,260h0c-2,0-3.6-2-3.4-4.5l9.3-116c.2-2.5,2.7-4.5,5.6-4.5h0c2.9,0,5,2,4.7,4.5q-6,58-11.9,116C207.7,258,205.8,260,203.7,260Z" fill="#ff0080"/>
      </g>
      <g>
        <rect x="195.9" y="191.8" width="145.8" height="19" rx="4" transform="translate(421.2 -97.9) rotate(80.2)" fill="#ff0080"/>
        <path d="M263.1,224.3l-7.4-42.6,27.6-4.8a11.6,11.6,0,0,1,9,2,12.1,12.1,0,0,1,4.9,7.7l3.3,19a12,12,0,0,1-9.8,13.9Zm1.9-36.1,4.6,26.8,19.7-3.4a4.2,4.2,0,0,0,2.6-1.6,4.1,4.1,0,0,0,.7-3l-3.3-19a4.4,4.4,0,0,0-1.6-2.6,4.6,4.6,0,0,0-3-.7Z" fill="#ff0080"/>
      </g>
      <g>
        <g>
          <path d="M177.4,60.7a23.5,23.5,0,1,1,14.1-4.8A23.1,23.1,0,0,1,177.4,60.7Z" fill="#97b3c6"/>
          <path d="M177.4,15.3a21.9,21.9,0,1,1-13.2,4.4,22.3,22.3,0,0,1,13.2-4.4m0-3v0h0a25,25,0,1,0,0,49.9,24.5,24.5,0,0,0,15-5.1,24.6,24.6,0,0,0,9.7-16.4,24.9,24.9,0,0,0-24.7-28.4Z" fill="#fff"/>
        </g>
        <circle cx="174.4" cy="33.3" r="7.2" fill="#fff"/>
        <path d="M187.9,51.1a17.3,17.3,0,0,0,6.9-14.5.3.3,0,0,0-.3-.3h0a13.8,13.8,0,0,0-8.7,1.4h0a35.2,35.2,0,0,0-10.2,7.7h0a14.3,14.3,0,0,0-3.8,8h0a.5.5,0,0,0,.2.4,17.3,17.3,0,0,0,15.9-2.7" fill="#fff"/>
      </g>
      <g>
        <g opacity="0.5">
          <path d="M289.7,64.4a24.6,24.6,0,0,1-6-.7,23.3,23.3,0,0,1,6-45.9,24.1,24.1,0,0,1,6,.8,23.3,23.3,0,0,1-6,45.8Z" fill="#97b3c6" fill-rule="evenodd"/>
          <path d="M289.7,19.3h0a21,21,0,0,1,5.6.8,21.8,21.8,0,0,1-5.6,42.8,21.8,21.8,0,0,1,0-43.6m0-3a24.8,24.8,0,0,0-6.4,48.8,23.9,23.9,0,0,0,6.4.8,24.8,24.8,0,0,0,6.4-48.7,23.5,23.5,0,0,0-6.4-.9Z" fill="#fff"/>
        </g>
        <g id="prefix_magnifyingglass-a" data-name="prefix  magnifyingglass-a">
          <path d="M302.5,31.6,293.3,37a10.3,10.3,0,0,0-12.9-2.8,9.8,9.8,0,0,0-4.8,6.2,9.7,9.7,0,0,0,1.1,7.6,10,10,0,0,0,14,3.5,10.6,10.6,0,0,0,4.4-6.1,11.6,11.6,0,0,0-.6-6.4l9-5.2c.6-.4,1.2-1.1.8-1.8A1.2,1.2,0,0,0,302.5,31.6ZM292.6,45a7.1,7.1,0,0,1-3.5,4.6,7.7,7.7,0,0,1-10.5-2.8,7.3,7.3,0,0,1-.7-5.8,7.6,7.6,0,0,1,9.3-5.4,7.7,7.7,0,0,1,4.7,3.6A7.3,7.3,0,0,1,292.6,45Z" fill="#fff" fill-rule="evenodd"/>
          <path d="M285.4,53.4a10.7,10.7,0,0,1-2.5-.3,10.5,10.5,0,0,1-7.7-12.8,10.4,10.4,0,0,1,18.2-3.8l9-5.2a1.3,1.3,0,0,1,1.3-.2,1.3,1.3,0,0,1,.9.7,1.8,1.8,0,0,1-.9,2.3L295,39.2a12,12,0,0,1,.5,6.2,10.5,10.5,0,0,1-4.6,6.4A10.7,10.7,0,0,1,285.4,53.4Zm-.3-20a9.4,9.4,0,0,0-4.5,1.1,9.2,9.2,0,0,0-4.6,6,9.6,9.6,0,0,0,1,7.4,9.4,9.4,0,0,0,6.1,4.5,9.9,9.9,0,0,0,7.4-1.2,9.5,9.5,0,0,0,4.2-5.9,11.1,11.1,0,0,0-.5-6.2v-.3l9.2-5.3c.4-.3.9-.8.7-1.3a.7.7,0,0,0-.5-.4,1.2,1.2,0,0,0-.8.1l-9.5,5.6-.2-.3A9.9,9.9,0,0,0,285.1,33.4Zm.2,17.6a8,8,0,0,1-7-4,7.6,7.6,0,0,1-.8-6.1,8,8,0,0,1,9.8-5.7,8.1,8.1,0,0,1,4.9,3.8,7.6,7.6,0,0,1,.8,6.1h0a7.7,7.7,0,0,1-3.7,4.8A7.3,7.3,0,0,1,285.3,51Zm-.1-15.3a6.5,6.5,0,0,0-3.6,1,7.2,7.2,0,0,0-3.4,4.4,7,7,0,0,0,.8,5.5,7.2,7.2,0,0,0,9.9,2.7,7.4,7.4,0,0,0,3.4-4.4h0a7.8,7.8,0,0,0-.7-5.6,7.5,7.5,0,0,0-4.5-3.3A6.3,6.3,0,0,0,285.2,35.7Z" fill="#fff"/>
        </g>
      </g>
    </g>
  </g>
</svg>
