<svg xmlns="http://www.w3.org/2000/svg" width="736" height="496" viewBox="0 0 736 496"><defs><style>.cls-1,.cls-2,.cls-3{fill:none;}.cls-2{stroke:#95b0c4;stroke-width:3px;}.cls-2,.cls-3{stroke-linecap:round;stroke-miterlimit:10;}.cls-3{stroke:#6595ab;stroke-width:1.5px;opacity:0.4;}.cls-4{fill:#6595ab;opacity:0.5;}.cls-5{fill:#eaf1f7;}.cls-6{fill:#6157ff;}.cls-7{fill:#546069;}.cls-8{fill:#fff;}</style></defs><g id="Layer_2" data-name="Layer 2"><g id="Layer_1-2" data-name="Layer 1"><rect class="cls-1" width="736" height="496"/><rect class="cls-2" x="375.03" y="336.12" width="39.71" height="74.54" rx="1.39"/><path class="cls-3" d="M412,339.6v68.27H377.82V339.6h8v.7a2.79,2.79,0,0,0,2.78,2.79h12.54a2.79,2.79,0,0,0,2.79-2.79v-.7Z"/><rect class="cls-2" x="521.33" y="320.85" width="77.92" height="105.08" rx="8"/><rect class="cls-3" x="526.76" y="328.51" width="67.07" height="89.75"/><path class="cls-2" d="M291.66,452.32l-14.57-17.5a5.6,5.6,0,0,0-4.3-2.05H123a5.63,5.63,0,0,0-4.31,2.05l-14.57,17.5a2,2,0,0,0,1.44,3.29H290.23A2,2,0,0,0,291.66,452.32Z"/><rect class="cls-2" x="119.86" y="322.37" width="156.09" height="100.89" rx="7.61"/><rect class="cls-3" x="127.44" y="329.75" width="140.93" height="87.07"/><rect class="cls-4" x="177.55" y="446.31" width="40.72" height="5.07" rx="2.53"/><path class="cls-5" d="M368,55.46a86.92,86.92,0,0,0-21.55,171.13,22.11,22.11,0,0,1,43.1,0A86.92,86.92,0,0,0,368,55.46Z"/><path class="cls-6" d="M368,53.46a88.92,88.92,0,0,0-21.9,175.09,22.1,22.1,0,0,1,43.8,0A88.92,88.92,0,0,0,368,53.46Zm0,69.74a105.87,105.87,0,0,0-82.46,39.39,84.91,84.91,0,1,1,164.92,0A105.87,105.87,0,0,0,368,123.2Z"/><path class="cls-7" d="M345.91,122a9.51,9.51,0,0,1-9.51-9.52V70.11A31.14,31.14,0,0,1,367.54,39h25a16.41,16.41,0,1,1-1,21.08H363.88a9.07,9.07,0,0,0-9.07,9.07V83.6A14.43,14.43,0,0,1,349,95.23h0a8.83,8.83,0,0,1,.45,2.83,9,9,0,0,1-3.53,7.18l0,.06V122"/><path class="cls-8" d="M404.63,66.5v40.26a24.86,24.86,0,0,1-13.33,22h0a22.65,22.65,0,0,1-22.64,21.81h0A22.65,22.65,0,0,1,346,128V105.21h0a9.06,9.06,0,1,1,3-10h0a14.45,14.45,0,0,0,5.85-11.63V69.12A9.08,9.08,0,0,1,364,60.05h27.63A16.38,16.38,0,0,0,404.63,66.5Z"/><path class="cls-7" d="M379.76,133.13a26.41,26.41,0,0,1-26.38-26.37,1.5,1.5,0,1,1,3,0,23.38,23.38,0,0,0,46.75,0V65.53a1.5,1.5,0,1,1,3,0v41.23A26.4,26.4,0,0,1,379.76,133.13Z"/><path class="cls-7" d="M340.21,108.18c-.35,0-.71,0-1.07-.05a10.08,10.08,0,0,1-8.92-11.08,10.06,10.06,0,0,1,19.14-3.11,1,1,0,1,1-1.81.84,8.05,8.05,0,1,0-.83,8.12,1,1,0,0,1,1.39-.22,1,1,0,0,1,.22,1.4A10.1,10.1,0,0,1,340.21,108.18Z"/><circle class="cls-5" cx="368" cy="231.52" r="15.58"/><path class="cls-6" d="M368,249.1a17.59,17.59,0,1,1,17.58-17.58A17.6,17.6,0,0,1,368,249.1Zm0-31.17a13.59,13.59,0,1,0,13.58,13.59A13.6,13.6,0,0,0,368,217.93Z"/><circle class="cls-6" cx="368" cy="231.48" r="6.97"/><circle class="cls-8" cx="196.86" cy="373.39" r="9.95"/><circle class="cls-8" cx="394.88" cy="373.39" r="9.95"/><circle class="cls-8" cx="560.29" cy="373.39" r="9.95"/><path class="cls-6" d="M562.29,361.62v-46a46.77,46.77,0,0,0-46.72-46.72H370V247.1h-4v21.79H241.58a46.77,46.77,0,0,0-46.72,46.72v46a12,12,0,1,0,4,0v-46a42.77,42.77,0,0,1,42.72-42.72H392.92v88.72a11.94,11.94,0,1,0,4,0V272.89H515.57a42.76,42.76,0,0,1,42.72,42.72v46a12,12,0,1,0,4,0ZM204.81,373.39a7.95,7.95,0,1,1-7.95-7.95A8,8,0,0,1,204.81,373.39Zm198,0a7.95,7.95,0,1,1-7.95-7.95A8,8,0,0,1,402.83,373.39Zm157.46,7.95a7.95,7.95,0,1,1,8-7.95A8,8,0,0,1,560.29,381.34Z"/></g></g></svg>