<svg xmlns="http://www.w3.org/2000/svg" xmlns:xlink="http://www.w3.org/1999/xlink" width="736" height="496" viewBox="0 0 736 496"><defs><style>.cls-1,.cls-18,.cls-19,.cls-20,.cls-21,.cls-4{fill:#fff;}.cls-1,.cls-14,.cls-29{stroke:#fff;}.cls-1,.cls-13,.cls-14,.cls-15,.cls-16,.cls-19,.cls-20,.cls-21,.cls-24,.cls-26,.cls-29,.cls-3,.cls-4,.cls-5,.cls-7{stroke-miterlimit:10;}.cls-1,.cls-21,.cls-29{stroke-width:2px;}.cls-13,.cls-14,.cls-16,.cls-2,.cls-24,.cls-29,.cls-3,.cls-5{fill:none;}.cls-3{stroke:#6595ab;}.cls-14,.cls-16,.cls-20,.cls-3,.cls-4,.cls-5{stroke-linecap:round;}.cls-16,.cls-20,.cls-3,.cls-5{stroke-width:1.5px;}.cls-19,.cls-26,.cls-4,.cls-5{stroke:#8eb2c6;}.cls-13,.cls-14,.cls-4{stroke-width:4px;}.cls-25,.cls-26,.cls-6{fill:#8eb2c6;}.cls-7{fill:#adcfde;stroke:#adcfde;}.cls-15,.cls-7{stroke-width:0.75px;}.cls-11,.cls-12,.cls-8{fill:#ffa100;}.cls-9{fill:#dfe0e1;}.cls-10{fill:#f1f1f1;}.cls-11{opacity:0.6;}.cls-12,.cls-25{opacity:0.3;}.cls-13{stroke:#ffa100;}.cls-15,.cls-22{fill:#3e7687;}.cls-15{stroke:#3e7687;}.cls-16,.cls-20{stroke:#444e57;}.cls-17{fill:#454e56;}.cls-19{stroke-width:3px;}.cls-21{stroke:#6157ff;}.cls-23{fill:#6157ff;}.cls-24{stroke:#bbd5de;}.cls-26{opacity:0.4;}.cls-27{clip-path:url(#clip-path);}.cls-28{clip-path:url(#clip-path-2);}</style><clipPath id="clip-path"><path class="cls-1" d="M586.07,311a2.14,2.14,0,0,1,0-3,2.18,2.18,0,0,1,3,0l8.76,8.69,21.68-21.51a2.16,2.16,0,0,1,3.05,0,2.12,2.12,0,0,1,0,3l-23.2,23a2.17,2.17,0,0,1-3.06,0Z"/></clipPath><clipPath id="clip-path-2"><rect class="cls-1" x="579.13" y="281.88" width="50.41" height="50.41"/></clipPath></defs><g id="Layer_2" data-name="Layer 2"><g id="Layer_1-2" data-name="Layer 1"><rect class="cls-2" width="736" height="496"/><path class="cls-3" d="M182.48,458.07c2.78,1.5,8.06,2.36,12.93,2.88,4.31.46,5.43,4.47,5.7,7.13a2.17,2.17,0,0,1-2.13,2.4l-31.56.24a4.73,4.73,0,0,1-3.35-4.6c0-2.18,1.15-6,1.48-7.42"/><path class="cls-3" d="M132.83,457.49l1.47,3.31a13.13,13.13,0,0,1,.6,8.18,3.25,3.25,0,0,1-.93,1.31,3.46,3.46,0,0,1-2.1.79H114.43a2.15,2.15,0,0,1-.87-.47,2.35,2.35,0,0,1-.7-1.21c-1.09-3.86.18-5.64.18-5.64a10.22,10.22,0,0,1,1.54-2.52,13.19,13.19,0,0,0,1.63-2.42l.11-.2a6.17,6.17,0,0,1,.68-1.06"/><rect class="cls-4" x="158.47" y="33.64" width="481.08" height="307.88" rx="11.06"/><line class="cls-5" x1="189.4" y1="66.56" x2="619.95" y2="66.56"/><circle class="cls-6" cx="181.31" cy="50.82" r="4.67"/><circle class="cls-6" cx="196.73" cy="50.82" r="4.67"/><circle class="cls-6" cx="212.15" cy="50.82" r="4.67"/><path class="cls-7" d="M184,396.19c-.69-16.61-3.12-24-3.13-32,0-17.2-.31-35.1-.31-47.83,0-45.64-12.61-59.45-12.61-59.45l-39.2,1.49h0a94.75,94.75,0,0,0-13,36.14c-5.24,33.83-.81,82.49-.81,82.49s-2.79,16.08-2.83,25c0,7.95,1.63,27.2,2.76,38,1,10,1.56,15.77,1.56,15.77h16.86s.94-3.18,3-15.22c1.26-7.42,3.41-16.37,4.58-25.64a240.46,240.46,0,0,0,1.3-29.62,43.91,43.91,0,0,1,1.31-11.53c1.22-5,2.88-10.14,4.08-14.37,4.72-26.55,5.14-44.25,5.15-44.44a1.5,1.5,0,0,1,3,.06c0,.19-.45,19-5.57,47,1.4,5.19,2.4,9.19,2.4,9.19a162.06,162.06,0,0,0,.54,22.92c1.39,15.65,6,30.7,9,45.93,2.1,10.77,3.11,15.74,3.11,15.74h16.37S185.52,431.69,184,396.19Z"/><path class="cls-8" d="M227.71,111V105a2.81,2.81,0,0,0-2.64-2.8l-16-1a2.81,2.81,0,0,0-3,2.8v7.84a2.81,2.81,0,0,0,3,2.8l16-1A2.81,2.81,0,0,0,227.71,111Z"/><path class="cls-8" d="M231.89,89l4.69-4a2.81,2.81,0,0,0,.49-3.72l-14.47-21a2.8,2.8,0,0,0-4.31-.37l-8.16,8.33a2.8,2.8,0,0,0,.09,4l17.94,16.68A2.8,2.8,0,0,0,231.89,89Z"/><path class="cls-8" d="M250.16,80.59l6,.1A2.82,2.82,0,0,0,259,78.14l1.26-13.85a2.79,2.79,0,0,0-2.74-3.05l-7.8-.13A2.8,2.8,0,0,0,246.83,64l.58,13.87A2.8,2.8,0,0,0,250.16,80.59Z"/><rect class="cls-9" x="242.9" y="166.48" width="245.02" height="61.07" rx="11.01"/><rect class="cls-10" x="242.81" y="240.7" width="245.02" height="61.07" rx="11.01"/><rect class="cls-11" x="317.98" y="107.07" width="149.34" height="13.04" rx="2.95"/><rect class="cls-12" x="317.98" y="127.98" width="116.35" height="13.06" rx="2.95"/><rect class="cls-13" x="242.89" y="93.52" width="244.69" height="61.07" rx="11.01"/><rect class="cls-8" x="243.59" y="93.6" width="59.47" height="59.47" rx="4.05"/><rect class="cls-14" x="259.02" y="121.96" width="28.6" height="19.86" rx="1.29"/><path class="cls-14" d="M263,114.59A10.06,10.06,0,0,1,273,104.52h0a10.07,10.07,0,0,1,10.07,10.07"/><line class="cls-14" x1="273.33" y1="130.09" x2="273.32" y2="134.57"/><path class="cls-15" d="M176.73,277.91s-5.43-20.15-4.75-27.18c.76-7.82,5.79-14.94,5-25-.5-6.73-2.74-9.91-3.07-11.64l12.42,3.48a2.07,2.07,0,0,0,2.5-1.3l8.52-17.48s1.24.35-23.43-9.17-32.1-5.24-32.1-5.24-24,3.45-24.51,34.65c-.2,11.68,2.84,23.18,3.7,30.91a84.09,84.09,0,0,1-2,30s2.12,3,12.67,2.33a134.62,134.62,0,0,0,29.24-4.92C170.75,274.56,176.73,277.91,176.73,277.91Z"/><path class="cls-16" d="M190.6,217A11.59,11.59,0,0,0,205.09,218c6.81-4.38,14.51-28,16.89-35.74a18.33,18.33,0,0,1,3.28-6.24,7.88,7.88,0,0,1,2.21-2c2.59-1.34,4.37-1.66,7.68-5.16,3.49-3.69.59-5.3.59-5.3.63-2.8-1.88-2.51-1.88-2.51a3.88,3.88,0,0,0-.28-3.08c-.88-1.45-3.12-1.2-3.12-1.2,3.18-5.85,4.91-11.35,3.76-12s-4.87,6.53-10.5,13.76-4.11,5.83-7.46,10.91-18.29,32-18.29,32"/><path class="cls-17" d="M138.61,184.9c-17.48-3.5-21.22-25.58-13.81-38.89,6.33-11.38,22.43-12.07,22.43-12.07s29.81,0,21.13,35.42l-10,6L148,182.76l-8.23,3Z"/><path class="cls-18" d="M159.32,179.38a14.8,14.8,0,0,0,6.62-2.24c15.88-10.34-3.76-33.81-3.76-33.81C159.47,153.84,145.53,157,145.53,157s-9.11-3.27-10.47,4.06,5.44,7.67,5.44,7.67l-2.29,18s.65,4.67,9.23,5.45,9.92-3.47,9.92-3.47Z"/><path class="cls-16" d="M157.48,189.48l2-9.34a14.65,14.65,0,0,0,6.62-2.25c15.88-10.33-3.76-33.8-3.76-33.8"/><ellipse class="cls-17" cx="116.01" cy="180.95" rx="12.6" ry="11.2" transform="translate(-93.57 133.24) rotate(-44.51)"/><rect class="cls-19" x="84.4" y="295.07" width="396.85" height="13.6" rx="3.78"/><rect class="cls-19" x="208.96" y="382.23" width="160.65" height="13.6" transform="translate(-99.74 678.32) rotate(-90)"/><rect class="cls-19" x="245.28" y="456.74" width="86.92" height="13.6" rx="4.59" transform="translate(577.47 927.09) rotate(180)"/><path class="cls-20" d="M148.92,244.26l59.3,40.62,28.61.76a2.71,2.71,0,0,0,2-4.63l-1.37-1.38a14.7,14.7,0,0,0-10.13-4.3l-6.89-.12a13.08,13.08,0,0,1-8.65-3.45L165,228.7Z"/><path class="cls-21" d="M206.13,285H294.9a0,0,0,0,1,0,0v7.49a0,0,0,0,1,0,0H206.13a2.53,2.53,0,0,1-2.53-2.53v-2.44a2.53,2.53,0,0,1,2.53-2.53Z"/><path class="cls-21" d="M313.56,292.54H248.84a3.17,3.17,0,0,1-2.7-4.84L267,254a13.12,13.12,0,0,1,11.16-6.21h64.72a3.17,3.17,0,0,1,2.7,4.84l-20.89,33.68A13.11,13.11,0,0,1,313.56,292.54Z"/><polygon class="cls-22" points="153.63 213.8 169.04 226.92 150.28 248.8 134.07 234.54 153.63 213.8"/><polyline class="cls-16" points="154.18 213.43 167.13 227.72 151.45 247.54 134.33 236.26"/><ellipse class="cls-23" cx="297.19" cy="270.84" rx="8.9" ry="7.24" transform="translate(-55.87 463.25) rotate(-70.93)"/><rect class="cls-19" x="519.61" y="154.29" width="169.45" height="317.21" rx="15.21" transform="translate(1.54 -2.95) rotate(0.28)"/><rect class="cls-24" x="533.39" y="180.08" width="141.9" height="265.64" transform="translate(1.54 -2.95) rotate(0.28)"/><circle class="cls-25" cx="603.09" cy="457.18" r="5.53"/><path class="cls-26" d="M604.16,361c-14.46-9.87-32.56-26.57-38-50.59a65.36,65.36,0,0,1-1.35-8.61V283.07l39.5-18.27,39.5,18.27v18.71a65.25,65.25,0,0,1-1.35,8.62c-5.41,24-23.51,40.72-38,50.59Z"/><path class="cls-18" d="M586.07,311a2.14,2.14,0,0,1,0-3,2.18,2.18,0,0,1,3,0l8.76,8.69,21.68-21.51a2.16,2.16,0,0,1,3.05,0,2.12,2.12,0,0,1,0,3l-23.2,23a2.17,2.17,0,0,1-3.06,0Z"/><g class="cls-27"><rect class="cls-18" x="579.13" y="281.88" width="50.41" height="50.41"/><g class="cls-28"><rect class="cls-1" x="574.93" y="283.98" width="58.81" height="48.31"/></g><rect class="cls-29" x="579.13" y="281.88" width="50.41" height="50.41"/></g><path class="cls-29" d="M586.07,311a2.14,2.14,0,0,1,0-3,2.18,2.18,0,0,1,3,0l8.76,8.69,21.68-21.51a2.16,2.16,0,0,1,3.05,0,2.12,2.12,0,0,1,0,3l-23.2,23a2.17,2.17,0,0,1-3.06,0Z"/></g></g></svg>