<svg xmlns="http://www.w3.org/2000/svg" xmlns:xlink="http://www.w3.org/1999/xlink" width="736" height="496" viewBox="0 0 736 496"><defs><style>.cls-1,.cls-21,.cls-3,.cls-8{fill:#fff;}.cls-1,.cls-28,.cls-29{stroke:#fff;}.cls-1,.cls-10,.cls-11,.cls-14,.cls-15,.cls-16,.cls-17,.cls-18,.cls-19,.cls-21,.cls-22,.cls-28,.cls-29,.cls-4,.cls-6,.cls-8{stroke-miterlimit:10;}.cls-1,.cls-15,.cls-17,.cls-18,.cls-19,.cls-22,.cls-28,.cls-8{stroke-width:1.5px;}.cls-10,.cls-11,.cls-14,.cls-15,.cls-17,.cls-19,.cls-2,.cls-22,.cls-28,.cls-4,.cls-6{fill:none;}.cls-15,.cls-22,.cls-4,.cls-8{stroke:#8eb2c6;}.cls-18,.cls-19,.cls-22,.cls-4,.cls-6,.cls-8{stroke-linecap:round;}.cls-10,.cls-11,.cls-14,.cls-21,.cls-4,.cls-6{stroke-width:3px;}.cls-5{fill:#009087;}.cls-6{stroke:#009087;}.cls-13,.cls-7{fill:#c4cbd1;fill-opacity:0.7;}.cls-7{opacity:0.5;}.cls-8{stroke-opacity:0.6;}.cls-9{fill:#dde2e8;}.cls-10{stroke:#c6d7e2;}.cls-11{stroke:#b1c8d7;}.cls-12{fill:#5596ae;}.cls-13{opacity:0.3;}.cls-14{stroke:#adc7d5;}.cls-16{fill:#00d5cc;stroke:#00d5cc;stroke-width:0.75px;}.cls-17{stroke:#5596ae;}.cls-18{fill:#705900;stroke:#705900;}.cls-19{stroke:#444e57;}.cls-20{fill:#ffd000;}.cls-21{stroke:#6157ff;}.cls-23{fill:#00db73;}.cls-24{fill:#e4eaf1;}.cls-25{fill:#6157ff;}.cls-26{clip-path:url(#clip-path);}.cls-27{clip-path:url(#clip-path-2);}.cls-29{fill:#00ad55;stroke-width:4px;}</style><clipPath id="clip-path"><path class="cls-1" d="M443.74,272.1a1.89,1.89,0,0,1,0-2.69,1.93,1.93,0,0,1,2.71,0l7.77,7.71L473.44,258a1.93,1.93,0,0,1,2.71,0,1.88,1.88,0,0,1,0,2.68l-20.58,20.43a1.93,1.93,0,0,1-2.71,0Z"/></clipPath><clipPath id="clip-path-2"><rect class="cls-1" x="437.58" y="246.3" width="44.72" height="44.72"/></clipPath></defs><g id="Layer_2" data-name="Layer 2"><g id="Layer_1-2" data-name="Layer 1"><rect class="cls-2" width="736" height="496"/><line class="cls-2" x1="527" y1="305" x2="527" y2="304"/><rect class="cls-3" x="169.36" y="231.99" width="113.89" height="113.91" rx="5" transform="translate(23.32 -16.83) rotate(4.49)"/><rect class="cls-4" x="169.36" y="231.99" width="113.89" height="113.91" rx="5" transform="translate(23.32 -16.83) rotate(4.49)"/><rect class="cls-5" x="201.14" y="259.86" width="4.27" height="4.27" transform="translate(21.14 -15.11) rotate(4.49)"/><rect class="cls-5" x="226.75" y="253.26" width="4.27" height="4.27" transform="translate(20.7 -17.14) rotate(4.49)"/><rect class="cls-5" x="221.54" y="319.6" width="4.27" height="4.27" transform="translate(25.88 -16.53) rotate(4.49)"/><rect class="cls-6" x="195.17" y="253.9" width="16.19" height="16.19" transform="translate(21.14 -15.11) rotate(4.49)"/><rect class="cls-5" x="197.22" y="309.74" width="4.27" height="4.27" transform="translate(25.03 -14.65) rotate(4.49)"/><rect class="cls-6" x="191.26" y="303.78" width="16.19" height="16.19" transform="translate(25.03 -14.65) rotate(4.49)"/><rect class="cls-5" x="250.72" y="263.76" width="4.27" height="4.27" transform="translate(21.6 -18.98) rotate(4.49)"/><rect class="cls-6" x="244.76" y="257.8" width="16.19" height="16.19" transform="translate(21.6 -18.98) rotate(4.49)"/><line class="cls-6" x1="220.26" y1="252.74" x2="217.65" y2="285.9"/><line class="cls-6" x1="218.14" y1="279.7" x2="212.97" y2="279.3"/><line class="cls-6" x1="208.1" y1="278.91" x2="191.43" y2="277.6"/><line class="cls-6" x1="197.77" y1="278.1" x2="196.96" y2="288.43"/><polyline class="cls-6" points="236.74 258.44 236.26 264.49 219.73 263.2"/><polyline class="cls-6" points="227.97 264.14 227.35 272.11 237.53 272.91"/><polyline class="cls-6" points="232.75 280.85 226.84 280.38 225.85 293.08 217.58 292.43 216.47 306.59"/><polyline class="cls-6" points="226.8 288.55 234.18 289.13 233.03 303.74"/><polyline class="cls-6" points="217.12 300.26 224.64 300.85 223.63 313.69 215.81 313.08 215.01 323.26"/><polyline class="cls-6" points="231.39 324.55 232.51 310.38 257.59 312.35 256.63 324.6 239.66 323.26 240.1 317.66"/><line class="cls-6" x1="248.72" y1="317.59" x2="249.18" y2="311.69"/><polyline class="cls-6" points="237.19 281.05 243.53 281.55 242.56 293.94 250.23 294.55 251.19 282.3 260.05 282.99 258.39 304.1 241.86 302.8 241.26 310.47"/><polyline class="cls-6" points="203.69 286.78 209.32 287.22 208.67 295.55 190.43 294.12"/><polygon class="cls-7" points="317.87 63.56 147.72 137.47 261.64 164.57 317.87 63.56"/><path class="cls-7" d="M205.27,47.51,147,137.78,318.35,63.35l-105.74-19A7.2,7.2,0,0,0,205.27,47.51Z"/><rect class="cls-8" x="168.87" y="62.1" width="141.91" height="109.87" transform="translate(-26.77 105.24) rotate(-23.48)"/><rect class="cls-9" x="204.09" y="76.1" width="70.73" height="8.34" transform="translate(-12.15 102.05) rotate(-23.48)"/><rect class="cls-9" x="210.42" y="90.67" width="70.73" height="8.34" transform="translate(-17.44 105.77) rotate(-23.48)"/><rect class="cls-9" x="187.63" y="111.29" width="101.11" height="8.34" transform="translate(-26.28 104.45) rotate(-23.48)"/><rect class="cls-9" x="193.96" y="125.87" width="101.11" height="8.34" transform="translate(-31.56 108.18) rotate(-23.48)"/><rect class="cls-9" x="200.29" y="140.44" width="101.11" height="8.34" transform="translate(-36.85 111.91) rotate(-23.48)"/><path class="cls-3" d="M247.47,161.84,147,137.78l41.09,94.61A10.83,10.83,0,0,0,202.34,238L353.83,172.2A10.81,10.81,0,0,0,359.44,158L318.71,64.18a.46.46,0,0,0-.81,0L267.36,153.2A18,18,0,0,1,247.47,161.84Z"/><line class="cls-10" x1="221.3" y1="156.23" x2="190.47" y2="216.28"/><line class="cls-10" x1="280.99" y1="130.18" x2="329.87" y2="144.01"/><path class="cls-11" d="M159.85,140.81l87.26,21A18,18,0,0,0,267,153.29l51-88.8a.45.45,0,0,1,.8,0l40.65,93.58a10.82,10.82,0,0,1-5.62,14.24l-151.49,65.8a10.83,10.83,0,0,1-14.24-5.61L147,138"/><path class="cls-12" d="M628.08,260c.58,16.19,2.39,70.34,3,86.53-3.49,13.39-5.68,24.82-7.08,33.45-1.56,9.57-2.76,17.12-3.15,27.29a171.54,171.54,0,0,0,1.09,26.85,1.65,1.65,0,0,1-1.54,1.85l-34.06,2a1.88,1.88,0,0,1-2-1.73c-1.07-14.29-1.44-26.39-1.56-35.55-.35-27.78-.71-38.87,1-46.23,1.58-6.92,15-87.31,16.27-90.93C600,263.4,627.55,260.22,628.08,260Z"/><polygon class="cls-3" points="362.33 133.32 350.11 133.32 338.95 138.9 333.37 148.19 324.87 290.07 326.99 303.09 335.49 310.79 342.67 312.92 576.73 327 588.15 326.2 597.72 318.23 602.24 303.88 603.3 289.27 391.55 288.74 369.23 285.02 362.86 271.74 362.33 133.32"/><polygon class="cls-13" points="362.33 134.77 350.11 134.77 338.95 140.35 333.37 149.65 324.87 290.07 326.99 303.09 335.49 310.79 342.67 312.92 576.73 327 588.15 326.2 597.72 318.23 602.24 303.88 603.3 289.27 391.55 288.74 369.23 285.02 362.86 271.74 362.33 134.77"/><path class="cls-14" d="M602,297.84l-.66,10.93a20.49,20.49,0,0,1-21.62,19.17L344.49,313.79a20.5,20.5,0,0,1-19.17-21.62l8.29-137.76a20.47,20.47,0,0,1,21.62-19.16"/><line class="cls-15" x1="362.3" y1="167.57" x2="334.42" y2="165.89"/><path class="cls-12" d="M684.39,257.06a1.8,1.8,0,0,1,1,1.72c-.7,16.23-1.37,29.34-1.87,38.52-.54,10-1,17.76-1.31,29.12-.27,10.17-.18,14.37-.26,22.3-.3,26.77-2,35.83-3.94,81.46-.12,2.77-.21,5.14-.28,6.92a1.8,1.8,0,0,1-1.76,1.73q-11.25.18-22.79.14l-11-.08a.67.67,0,0,1-.66-.64q-2-36.71-3.6-74.05-1.56-35.7-2.77-70.87c0-.44-.94-35.14-.67-35.48,4.45-5.53,16.19-2.63,17.25-3.32,4.44-2.9,14.48-3.92,25.46-.43A50.15,50.15,0,0,1,684.39,257.06Z"/><path class="cls-16" d="M567.3,150.58c5.05-3.55,9.62-20.3,15.74-23.8a213.42,213.42,0,0,1,33.56-15.52l1.11,6.72a24.78,24.78,0,0,0,11.51.27c12.45-2.75,18-14.63,18.76-16.3,4.52.09,10.59,1.38,18,4.18A47.8,47.8,0,0,1,682.46,117c16.38,17.19,19.5,33.12,22.56,60.84a1.72,1.72,0,0,1-1.39,1.89l-18.16,4.44c.75,3.45.87,28.76,1.61,32.21L652.18,256c-1.43-.51-19.48.85-20.91.34l3.19-20.5V180.17a14,14,0,0,0-1.41-6.15,14.86,14.86,0,0,0-7.53-7C603.85,158.46,589,159.15,567.3,150.58Z"/><path class="cls-16" d="M650.37,255.84a174.52,174.52,0,0,1,18,0c5.9.31,11.36.9,16.33,1.64a.69.69,0,0,0,.8-.62c1-9.56,1.62-19.76,1.67-30.53q0-5.09-.11-10l-10.25,11.27c-10.81,11.91-15.28,16.87-22.17,23.87C652.85,253.36,651.35,254.86,650.37,255.84Z"/><path class="cls-17" d="M590.65,434.69c-.2,3-.41,5.94-.61,8.92a8.36,8.36,0,0,1-1,2.18,9,9,0,0,1-3.59,3c-7.63,3.78-.06.83-14.95,8a67.64,67.64,0,0,0-5.86,3.41,11.21,11.21,0,0,0-2.36,1.84,10.54,10.54,0,0,0-2.36,4,10,10,0,0,0-.53,4.64,2.5,2.5,0,0,0,.35,1.13c.79,1.21,2.69,1.24,3.68,1.23l28.5-2.19c4.82-.13,11.75-.45,20.29-1.31a7.52,7.52,0,0,0,3.24-1.57,8.51,8.51,0,0,0,2.53-4.55,29.16,29.16,0,0,0,.88-10.49c-.33-3.69-.87-4.61-1.66-9A84.2,84.2,0,0,1,615.92,433"/><path class="cls-17" d="M647.23,436.7a10.22,10.22,0,0,1,.17,6.64,24.34,24.34,0,0,1-2.09,4.2,20.53,20.53,0,0,0-1.32,2.19,12.44,12.44,0,0,0-1,3.67c-1,7-.92,10.39-.35,12.59a5.86,5.86,0,0,0,1,2.19,5.71,5.71,0,0,0,2,1.57c1.77.92,3.58,1.16,7.6,1.4,2.76.17,3.59.18,3.59.18,10.26,0,12.28.6,20.81.43,1.68,0,4.19-.1,7.26-.26a1.92,1.92,0,0,0,1-.35,3.22,3.22,0,0,0,1-2.53c.27-4.15.4-6.22-.26-8.05a13.8,13.8,0,0,0-1.31-2.62c-1.52-2.39-3.08-3.24-5-5a28.39,28.39,0,0,1-4.2-5c-1.06-1.63-3-5.48-2.8-12.86"/><path class="cls-17" d="M669.79,452.26a18.78,18.78,0,0,0-5.86-1.66,20.27,20.27,0,0,0-12.77,3.06"/><path class="cls-18" d="M649.46,108.43q-6.37-27.81-12.76-55.62a13.26,13.26,0,0,0-1.07-3.36,10.31,10.31,0,0,0-3.15-4.14,9.77,9.77,0,0,0-5.05-1.83,9.67,9.67,0,0,0-2.45.15L606.79,47.3a9.57,9.57,0,0,0-2.19-1.92,11,11,0,0,0-7.34-1.4c-6.33.76-10,6.28-10.76,7.52-1.08,1.74-3.42,5.5-2.36,10.23A11.7,11.7,0,0,0,590,69.52a11.44,11.44,0,0,0,7.69.87c8.6-2.24,19.17-4.86,27.77-7.1l2.62,5.44a7,7,0,0,0,2,.92,24,24,0,0,0,2.82.39,9.07,9.07,0,0,1,2.62.85c1.91,1.09,2.46,3.46,2.69,4.46.15.64,1.2,5.16-1.7,7.87a6.1,6.1,0,0,1-1.46,1,1.89,1.89,0,0,0-.9,2.39L636.28,92a2.49,2.49,0,0,0,.85,1,3.29,3.29,0,0,0,2.43.26,26.2,26.2,0,0,0,5.18-1.51"/><path class="cls-19" d="M649.46,108.43q-1.55-6.78-3.11-13.56"/><path class="cls-19" d="M594.74,70.69,601.89,99a7.71,7.71,0,0,0,1.93,3.14c4.41,4.31,14.49,2.78,25.18-3.49"/><path class="cls-19" d="M615.49,104.57q1.31,7.92,2.62,15.84"/><path class="cls-20" d="M368.26,101.83l-4.73,2.28a2.38,2.38,0,0,1-3.3-1.38l-7.64-22.44a2.38,2.38,0,0,1,1.91-3.13L362,76.05a2.38,2.38,0,0,1,2.68,1.82l4.91,21.27A2.4,2.4,0,0,1,368.26,101.83Z"/><path class="cls-20" d="M390.12,97.88l5.76-1.35a1.82,1.82,0,0,0,1.4-1.7L398,77.76a1.82,1.82,0,0,0-1.77-1.9l-8.94-.27a1.82,1.82,0,0,0-1.87,2l2.46,18.71A1.82,1.82,0,0,0,390.12,97.88Z"/><rect class="cls-21" x="363.28" y="111.21" width="274.13" height="178.21" rx="10"/><path class="cls-18" d="M406,202.76a56.83,56.83,0,0,1,1-12.34s.87-3.76,2.81-4.83a4.27,4.27,0,0,1,.73-.32,5,5,0,0,1,1.39-.21l9.26-.32a6.45,6.45,0,0,0,4.52-2.18,11.08,11.08,0,0,1,1.26-1.17,11.29,11.29,0,0,1,6.49-2.34,11.62,11.62,0,0,1,7.76,2.59,10.76,10.76,0,0,1,3.2,11.86,6.75,6.75,0,0,1-1.23,2.05c-3.6,4.06-11.18,1.81-11.78,1.63l-15.45.31a12.37,12.37,0,0,0-9.06,4.23l-.91,1"/><path class="cls-19" d="M406,202.76l.72,14.87c.66,7.46,7.68,13.32,15.17,13.17l2,0A14.23,14.23,0,0,0,437.77,217l.6-19.09"/><path class="cls-22" d="M411.37,232.35h0a8.06,8.06,0,0,1-5.65,7.7L385,246.32"/><path class="cls-22" d="M432.25,232.74h0a8.07,8.07,0,0,0,5.65,7.7h0"/><path class="cls-22" d="M408.8,238.25,420,244a4.47,4.47,0,0,0,4.23-.07l10.17-5.71"/><line class="cls-15" x1="364.78" y1="143.4" x2="635.91" y2="143.4"/><path class="cls-9" d="M481.09,160.35H599.72a1.73,1.73,0,0,1,1.73,1.73v19.2a4.12,4.12,0,0,1-4.12,4.12H478.14a1.73,1.73,0,0,1-1.73-1.73V165a4.69,4.69,0,0,1,4.69-4.69Z"/><path class="cls-9" d="M480.27,195.64h81.47a1.73,1.73,0,0,1,1.73,1.73v13.2a3.64,3.64,0,0,1-3.64,3.64h-81.7a1.73,1.73,0,0,1-1.73-1.73v-13a3.86,3.86,0,0,1,3.86-3.86Z"/><path class="cls-9" d="M480.27,223.44h133a1.73,1.73,0,0,1,1.73,1.73v12.09a3.64,3.64,0,0,1-3.64,3.64H478.14a1.73,1.73,0,0,1-1.73-1.73V227.3a3.86,3.86,0,0,1,3.86-3.86Z"/><path class="cls-9" d="M480.27,250.13h133a1.73,1.73,0,0,1,1.73,1.73v12.09a3.64,3.64,0,0,1-3.64,3.64H478.14a1.73,1.73,0,0,1-1.73-1.73V254a3.86,3.86,0,0,1,3.86-3.86Z"/><path class="cls-23" d="M178.71,108.87a10.52,10.52,0,1,1,19.5-7.9l3.81,9.4-8.94-2.83-1.56-3.86a3.3,3.3,0,0,0-6.12,2.48L187,110l-4.45,8.25Z"/><path class="cls-3" d="M188.45,95.9a9,9,0,0,1,8.37,5.63l2.61,6.45-5.22-1.66-1.3-3.2a4.81,4.81,0,0,0-4.45-3,4.76,4.76,0,0,0-1.8.35,4.81,4.81,0,0,0-2.65,6.25l1.3,3.21-2.6,4.82-2.61-6.44a9,9,0,0,1,8.35-12.41m0-3h0a12,12,0,0,0-11.13,16.54l2.61,6.44,2.39,5.91,3-5.61,2.6-4.83.67-1.24-.53-1.31-1.3-3.2a1.81,1.81,0,0,1,1-2.35,2,2,0,0,1,.68-.13,1.79,1.79,0,0,1,1.67,1.13l1.3,3.2.53,1.31,1.34.42,5.23,1.66,6.08,1.93-2.4-5.92-2.61-6.44a12,12,0,0,0-11.15-7.51Z"/><path class="cls-23" d="M185.54,128.69a2.8,2.8,0,0,1-2.61-1.76l-5.09-12.56a2.82,2.82,0,0,1,1.55-3.66L199,102.76a2.92,2.92,0,0,1,1.05-.2,2.81,2.81,0,0,1,2.61,1.75l5.09,12.57a2.82,2.82,0,0,1-1.55,3.66l-19.61,7.94A2.73,2.73,0,0,1,185.54,128.69Z"/><path class="cls-3" d="M200.05,104.06a1.32,1.32,0,0,1,1.22.82l5.09,12.56a1.32,1.32,0,0,1-.72,1.71L186,127.09a1.23,1.23,0,0,1-.49.1,1.32,1.32,0,0,1-1.22-.82l-5.09-12.57a1.31,1.31,0,0,1,.72-1.7l19.61-7.95a1.41,1.41,0,0,1,.49-.09m0-3h0a4.23,4.23,0,0,0-1.61.31l-19.61,7.95a4.31,4.31,0,0,0-2.38,5.61l5.09,12.57a4.3,4.3,0,0,0,4,2.69,4.24,4.24,0,0,0,1.61-.32l19.61-7.94a4.32,4.32,0,0,0,2.38-5.61l-5.09-12.57a4.3,4.3,0,0,0-4-2.69Z"/><path class="cls-24" d="M82,155h87.78a5,5,0,0,1,5,5v24.72a0,0,0,0,1,0,0H77a0,0,0,0,1,0,0V160A5,5,0,0,1,82,155Z" transform="translate(63.27 -32.09) rotate(19.32)"/><rect class="cls-10" x="52.06" y="150.75" width="97.78" height="180.68" rx="5" transform="translate(85.43 -19.82) rotate(19.32)"/><path class="cls-4" d="M458.61,235.74V167a6.69,6.69,0,0,0-6.68-6.69H391.69A6.69,6.69,0,0,0,385,167V260.9a6.68,6.68,0,0,0,6.68,6.68h32.54"/><path class="cls-25" d="M458.87,312.7l-.38-.26c-11.5-7.86-26.12-21.3-30.5-40.73a52.52,52.52,0,0,1-1.09-7V248.9l32.59-15.07,32.6,15.07v15.83a54.21,54.21,0,0,1-1.09,7c-4.38,19.43-19,32.87-30.5,40.73l-.39.26Z"/><path class="cls-3" d="M459.48,235.48l31.1,14.38v14.73a53,53,0,0,1-1.07,6.79c-4.26,18.9-18.5,32.05-29.88,39.82h-.29c-11.38-7.77-25.63-20.92-29.89-39.82a51.3,51.3,0,0,1-1.06-6.79V249.86l31.09-14.38m0-3.3-1.26.58-31.09,14.38-1.74.8v16.92a57.36,57.36,0,0,0,1.12,7.18c4.49,19.91,19.4,33.63,31.12,41.64l.77.52h2.15l.76-.52C473,305.67,488,292,492.44,272a53.9,53.9,0,0,0,1.12-7.18l0-.13V247.94l-1.75-.8-31.09-14.38-1.26-.58Z"/><path class="cls-3" d="M443.74,272.1a1.89,1.89,0,0,1,0-2.69,1.93,1.93,0,0,1,2.71,0l7.77,7.71L473.44,258a1.93,1.93,0,0,1,2.71,0,1.88,1.88,0,0,1,0,2.68l-20.58,20.43a1.93,1.93,0,0,1-2.71,0Z"/><g class="cls-26"><rect class="cls-3" x="437.58" y="246.3" width="44.72" height="44.72"/><g class="cls-27"><rect class="cls-1" x="433.86" y="248.16" width="52.17" height="42.86"/></g><rect class="cls-28" x="437.58" y="246.3" width="44.72" height="44.72"/></g><path class="cls-28" d="M443.74,272.1a1.89,1.89,0,0,1,0-2.69,1.93,1.93,0,0,1,2.71,0l7.77,7.71L473.44,258a1.93,1.93,0,0,1,2.71,0,1.88,1.88,0,0,1,0,2.68l-20.58,20.43a1.93,1.93,0,0,1-2.71,0Z"/><path class="cls-20" d="M343.66,112.91l-3.07,2.16a3,3,0,0,1-3.6-.13l-11.65-9.5a3,3,0,0,1-.41-4.23L329,96.3a3,3,0,0,1,4.55,0l10.61,12.25A3,3,0,0,1,343.66,112.91Z"/><path class="cls-29" d="M94.83,275.14a1.53,1.53,0,0,1-2.15.84,14.59,14.59,0,0,1-4.81-3.7,48.84,48.84,0,0,1-4.59-8.76,5.66,5.66,0,0,0-3.45-3.38l-57.43-20a5.68,5.68,0,0,1-3.49-7.22l16.74-48.08a9.47,9.47,0,0,1,12-5.81l83.53,29.09a5.69,5.69,0,0,1,3.49,7.22L118,263.41a9.47,9.47,0,0,1-12,5.82l-4.71-1.65a3.33,3.33,0,0,0-4.14,1.81C96.31,271.14,95.41,273.56,94.83,275.14Z"/><circle class="cls-3" cx="100.15" cy="233.43" r="9.61"/><circle class="cls-3" cx="76.6" cy="225.23" r="9.61"/><circle class="cls-3" cx="53.04" cy="217.02" r="9.61"/><path class="cls-3" d="M525.43,109.54s.09-6.35-12.87-6.35-14.59,7.7-14.59,7.7-2.85,16.77,10,17.24c13.19.48,11.28-13.92,11.28-13.92s-1-4.69,1.23-4.75S525.43,109.54,525.43,109.54Z"/><path class="cls-19" d="M528,109.13s-.61-4.39,2.15-4.57c4.25-.3,3.25,4.36,3.25,4.36"/><path class="cls-19" d="M525.37,109.13s.15-5.94-12.81-5.94-14.59,7.7-14.59,7.7-2.85,16.9,10,17.24c13.77.36,11.48-17.73,11.48-17.73"/><path class="cls-3" d="M671.29,188l2.85,12.36L656,250.82l-4.36,8-5.5,1.55s-8.91,3.86-12.91,7.36c-2.9,2.53-8,6-11.17,7a2.72,2.72,0,0,0-1.93,2.7h0a2.72,2.72,0,0,0,3,2.62,41.55,41.55,0,0,0,5.08-1c1-.24,1.35-2.34,2.39-2.61,1.39-.36,2.69-.6,3.86-.81a3.76,3.76,0,0,1,3.8,1.65l.6.92a4.25,4.25,0,0,1,.44,3.73l-1.17,3.3a4.2,4.2,0,0,1-1.69,2.14l-4.59,3.29a4.2,4.2,0,0,1-2.15.68l-10,.35a1.81,1.81,0,0,0-1.53.93h0a1.84,1.84,0,0,0,1.31,2.73l4.84.77a4.35,4.35,0,0,0,1,.05l8.82-.43a4.38,4.38,0,0,0,1.7-.41l7.51-3.4a4.74,4.74,0,0,0,1.86-1.52L660.51,269l3.47-5,31.14-47a46.72,46.72,0,0,0,7.49-30.76l-.65-6"/><path class="cls-19" d="M662.16,152.74l12,47.63c-2.4,6-18.79,54.71-22.54,58.41-8.52.54-20.43,11.73-29.58,15.88-3.07.86-2.13,5.71,1.06,5.32,3.36,0,8.35-2.52,11.33-4.45,6.5-.46,5.81,8.86,2,11.74-5.09,5-10.35,4.06-16.74,4.32-2.1-.08-2.71,4.05-.9,4.46,26,4.61,28.45-10.29,41.76-27.05C672,248.28,710.78,208.12,702,180.24"/></g></g></svg>