<svg xmlns="http://www.w3.org/2000/svg" xmlns:xlink="http://www.w3.org/1999/xlink" width="736" height="496" viewBox="0 0 736 496">
  <defs>
    <pattern id="Hatching_Double" data-name="Hatching Double" width="72" height="72" patternTransform="translate(-106 110.3) rotate(0) scale(2)" patternUnits="userSpaceOnUse" viewBox="0 0 72 72">
      <rect width="72" height="72" fill="none"/>
      <rect x="32.8" y="37.1" width="111" height="107.29" fill="#6e98af"/>
      <g>
        <rect x="-39.2" y="37.1" width="111" height="107.29" fill="#6e98af"/>
        <line x1="24" y1="76.9" x2="21.4" y2="70.4" fill="none" stroke="#fff" stroke-width="0.75" opacity="0.6"/>
        <line x1="19.6" y1="71.1" x2="22.1" y2="77.6" fill="none" stroke="#fff" stroke-width="0.75" opacity="0.6"/>
        <line x1="63.9" y1="78.6" x2="61.8" y2="72" fill="none" stroke="#fff" stroke-width="0.75" opacity="0.6"/>
      </g>
      <g>
        <rect x="32.8" y="-34.9" width="111" height="107.29" fill="#6e98af"/>
        <line x1="74.4" y1="12.9" x2="68.3" y2="9.4" fill="none" stroke="#fff" stroke-width="0.75" opacity="0.6"/>
        <line x1="69.8" y1="7.3" x2="75.8" y2="10.8" fill="none" stroke="#fff" stroke-width="0.75" opacity="0.6"/>
        <line x1="75.2" y1="27.6" x2="68.6" y2="30" fill="none" stroke="#fff" stroke-width="0.75" opacity="0.6"/>
        <line x1="69.3" y1="31.9" x2="75.9" y2="29.5" fill="none" stroke="#fff" stroke-width="0.75" opacity="0.6"/>
        <line x1="76" y1="36.3" x2="69.2" y2="34.6" fill="none" stroke="#fff" stroke-width="0.75" opacity="0.6"/>
        <line x1="68.7" y1="36.5" x2="75.5" y2="38.3" fill="none" stroke="#fff" stroke-width="0.75" opacity="0.6"/>
        <line x1="75.4" y1="57.9" x2="68.7" y2="56" fill="none" stroke="#fff" stroke-width="0.75" opacity="0.6"/>
        <line x1="68.2" y1="57.9" x2="74.9" y2="59.8" fill="none" stroke="#fff" stroke-width="0.75" opacity="0.6"/>
        <line x1="75.1" y1="64" x2="68.3" y2="66" fill="none" stroke="#fff" stroke-width="0.75" opacity="0.6"/>
        <line x1="68.9" y1="67.9" x2="75.6" y2="65.9" fill="none" stroke="#fff" stroke-width="0.75" opacity="0.6"/>
        <line x1="69.4" y1="21.7" x2="74.8" y2="17.3" fill="none" stroke="#fff" stroke-width="0.75" opacity="0.6"/>
      </g>
      <g>
        <rect x="-39.2" y="-34.9" width="111" height="107.29" fill="#6e98af"/>
        <line x1="24" y1="76.9" x2="21.4" y2="70.4" fill="none" stroke="#fff" stroke-width="0.75" opacity="0.6"/>
        <line x1="45.1" y1="73.1" x2="38.6" y2="70.6" fill="none" stroke="#fff" stroke-width="0.75" opacity="0.6"/>
        <line x1="3.4" y1="7.4" x2="6.7" y2="1.2" fill="none" stroke="#fff" stroke-width="0.75" opacity="0.6"/>
        <line x1="4.9" y1="0.3" x2="1.6" y2="6.4" fill="none" stroke="#fff" stroke-width="0.75" opacity="0.6"/>
        <line x1="17.8" y1="7.3" x2="13.2" y2="2.1" fill="none" stroke="#fff" stroke-width="0.75" opacity="0.6"/>
        <line x1="11.7" y1="3.4" x2="16.3" y2="8.7" fill="none" stroke="#fff" stroke-width="0.75" opacity="0.6"/>
        <line x1="24" y1="4.9" x2="21.4" y2="-1.6" fill="none" stroke="#fff" stroke-width="0.75" opacity="0.6"/>
        <line x1="19.6" y1="-0.9" x2="22.1" y2="5.6" fill="none" stroke="#fff" stroke-width="0.75" opacity="0.6"/>
        <line x1="32.6" y1="7.7" x2="34.1" y2="0.9" fill="none" stroke="#fff" stroke-width="0.75" opacity="0.6"/>
        <line x1="32.2" y1="0.4" x2="30.7" y2="7.2" fill="none" stroke="#fff" stroke-width="0.75" opacity="0.6"/>
        <line x1="54" y1="7.6" x2="55.7" y2="0.9" fill="none" stroke="#fff" stroke-width="0.75" opacity="0.6"/>
        <line x1="53.8" y1="0.4" x2="52" y2="7.1" fill="none" stroke="#fff" stroke-width="0.75" opacity="0.6"/>
        <line x1="63.9" y1="6.6" x2="61.8" fill="none" stroke="#fff" stroke-width="0.75" opacity="0.6"/>
        <line x1="59.9" y1="0.6" x2="62" y2="7.2" fill="none" stroke="#fff" stroke-width="0.75" opacity="0.6"/>
        <line x1="2.4" y1="12.9" x2="-3.7" y2="9.4" fill="none" stroke="#fff" stroke-width="0.75" opacity="0.6"/>
        <line x1="-2.2" y1="7.3" x2="3.8" y2="10.8" fill="none" stroke="#fff" stroke-width="0.75" opacity="0.6"/>
        <line x1="3.2" y1="27.6" x2="-3.4" y2="30" fill="none" stroke="#fff" stroke-width="0.75" opacity="0.6"/>
        <line x1="-2.7" y1="31.9" x2="3.9" y2="29.5" fill="none" stroke="#fff" stroke-width="0.75" opacity="0.6"/>
        <line x1="4" y1="36.3" x2="-2.8" y2="34.6" fill="none" stroke="#fff" stroke-width="0.75" opacity="0.6"/>
        <line x1="-3.3" y1="36.5" x2="3.5" y2="38.3" fill="none" stroke="#fff" stroke-width="0.75" opacity="0.6"/>
        <line x1="3.8" y1="42" x2="1.1" y2="48.4" fill="none" stroke="#fff" stroke-width="0.75" opacity="0.6"/>
        <line x1="0.5" y1="53" x2="3.2" y2="46.6" fill="none" stroke="#fff" stroke-width="0.75" opacity="0.6"/>
        <line x1="3.4" y1="57.9" x2="-3.3" y2="56" fill="none" stroke="#fff" stroke-width="0.75" opacity="0.6"/>
        <line x1="-3.8" y1="57.9" x2="2.9" y2="59.8" fill="none" stroke="#fff" stroke-width="0.75" opacity="0.6"/>
        <line x1="3.1" y1="64" x2="-3.7" y2="66" fill="none" stroke="#fff" stroke-width="0.75" opacity="0.6"/>
        <line x1="-3.1" y1="67.9" x2="3.6" y2="65.9" fill="none" stroke="#fff" stroke-width="0.75" opacity="0.6"/>
        <line x1="67.3" y1="11.2" x2="73.4" y2="14.6" fill="none" stroke="#fff" stroke-width="0.75" opacity="0.6"/>
        <line x1="74.4" y1="12.9" x2="68.3" y2="9.4" fill="none" stroke="#fff" stroke-width="0.75" opacity="0.6"/>
        <line x1="67" y1="25.6" x2="72.4" y2="21.2" fill="none" stroke="#fff" stroke-width="0.75" opacity="0.6"/>
        <line x1="71.1" y1="19.6" x2="65.7" y2="24" fill="none" stroke="#fff" stroke-width="0.75" opacity="0.6"/>
        <line x1="69.3" y1="31.9" x2="75.9" y2="29.5" fill="none" stroke="#fff" stroke-width="0.75" opacity="0.6"/>
        <line x1="75.2" y1="27.6" x2="68.6" y2="30" fill="none" stroke="#fff" stroke-width="0.75" opacity="0.6"/>
        <line x1="66.3" y1="40.4" x2="73" y2="42.1" fill="none" stroke="#fff" stroke-width="0.75" opacity="0.6"/>
        <line x1="73.5" y1="40.2" x2="66.8" y2="38.5" fill="none" stroke="#fff" stroke-width="0.75" opacity="0.6"/>
        <line x1="65.7" y1="61.8" x2="72.5" y2="63.7" fill="none" stroke="#fff" stroke-width="0.75" opacity="0.6"/>
        <line x1="73" y1="61.7" x2="66.3" y2="59.8" fill="none" stroke="#fff" stroke-width="0.75" opacity="0.6"/>
        <line x1="66.5" y1="71.8" x2="73.2" y2="69.7" fill="none" stroke="#fff" stroke-width="0.75" opacity="0.6"/>
        <line x1="72.6" y1="67.8" x2="65.9" y2="69.8" fill="none" stroke="#fff" stroke-width="0.75" opacity="0.6"/>
        <line x1="44.8" y1="58.2" x2="50.9" y2="61.6" fill="none" stroke="#fff" stroke-width="0.75" opacity="0.6"/>
        <line x1="51.9" y1="59.9" x2="45.8" y2="56.4" fill="none" stroke="#fff" stroke-width="0.75" opacity="0.6"/>
        <line x1="12.6" y1="28.1" x2="7.2" y2="32.5" fill="none" stroke="#fff" stroke-width="0.75" opacity="0.6"/>
        <line x1="8.5" y1="34.1" x2="13.9" y2="29.7" fill="none" stroke="#fff" stroke-width="0.75" opacity="0.6"/>
        <line x1="10.8" y1="40.4" x2="17.4" y2="38" fill="none" stroke="#fff" stroke-width="0.75" opacity="0.6"/>
        <line x1="16.7" y1="36.1" x2="10.1" y2="38.5" fill="none" stroke="#fff" stroke-width="0.75" opacity="0.6"/>
        <line x1="58.9" y1="13.8" x2="56.1" y2="20.3" fill="none" stroke="#fff" stroke-width="0.75" opacity="0.6"/>
        <line x1="58" y1="21" x2="60.7" y2="14.6" fill="none" stroke="#fff" stroke-width="0.75" opacity="0.6"/>
        <line x1="40.9" y1="13.6" x2="47.7" y2="15.5" fill="none" stroke="#fff" stroke-width="0.75" opacity="0.6"/>
        <line x1="48.2" y1="13.6" x2="41.5" y2="11.7" fill="none" stroke="#fff" stroke-width="0.75" opacity="0.6"/>
        <line x1="35.6" y1="24" x2="42.3" y2="22" fill="none" stroke="#fff" stroke-width="0.75" opacity="0.6"/>
        <line x1="41.7" y1="20.1" x2="35" y2="22.1" fill="none" stroke="#fff" stroke-width="0.75" opacity="0.6"/>
        <line x1="30.3" y1="43.6" x2="24.2" y2="40.1" fill="none" stroke="#fff" stroke-width="0.75" opacity="0.6"/>
        <line x1="23.2" y1="41.8" x2="29.3" y2="45.3" fill="none" stroke="#fff" stroke-width="0.75" opacity="0.6"/>
        <line x1="23.5" y1="58.1" x2="28.9" y2="53.7" fill="none" stroke="#fff" stroke-width="0.75" opacity="0.6"/>
        <line x1="27.6" y1="52.1" x2="22.2" y2="56.5" fill="none" stroke="#fff" stroke-width="0.75" opacity="0.6"/>
        <line x1="25.3" y1="65.9" x2="31.9" y2="63.5" fill="none" stroke="#fff" stroke-width="0.75" opacity="0.6"/>
        <line x1="31.2" y1="61.6" x2="24.6" y2="64" fill="none" stroke="#fff" stroke-width="0.75" opacity="0.6"/>
        <line x1="23.3" y1="13.9" x2="30" y2="15.6" fill="none" stroke="#fff" stroke-width="0.75" opacity="0.6"/>
        <line x1="30.5" y1="13.7" x2="23.8" y2="12" fill="none" stroke="#fff" stroke-width="0.75" opacity="0.6"/>
        <line x1="26.9" y1="29.7" x2="29.6" y2="23.3" fill="none" stroke="#fff" stroke-width="0.75" opacity="0.6"/>
        <line x1="27.8" y1="22.5" x2="25" y2="28.9" fill="none" stroke="#fff" stroke-width="0.75" opacity="0.6"/>
        <line x1="57.1" y1="46.5" x2="63.8" y2="44.5" fill="none" stroke="#fff" stroke-width="0.75" opacity="0.6"/>
        <line x1="63.2" y1="42.6" x2="56.5" y2="44.6" fill="none" stroke="#fff" stroke-width="0.75" opacity="0.6"/>
        <line x1="58.1" y1="27.6" x2="59.1" y2="34.6" fill="none" stroke="#fff" stroke-width="0.75" opacity="0.6"/>
        <line x1="61.1" y1="34.3" x2="60.1" y2="27.4" fill="none" stroke="#fff" stroke-width="0.75" opacity="0.6"/>
        <line x1="45.9" y1="27.5" x2="52.8" y2="29.1" fill="none" stroke="#fff" stroke-width="0.75" opacity="0.6"/>
        <line x1="53.2" y1="27.1" x2="46.4" y2="25.5" fill="none" stroke="#fff" stroke-width="0.75" opacity="0.6"/>
        <line x1="43" y1="46.4" x2="48.9" y2="50.1" fill="none" stroke="#fff" stroke-width="0.75" opacity="0.6"/>
        <line x1="50" y1="48.4" x2="44.1" y2="44.7" fill="none" stroke="#fff" stroke-width="0.75" opacity="0.6"/>
        <line x1="34.4" y1="44.7" x2="37.2" y2="51.1" fill="none" stroke="#fff" stroke-width="0.75" opacity="0.6"/>
        <line x1="39" y1="50.3" x2="36.2" y2="43.9" fill="none" stroke="#fff" stroke-width="0.75" opacity="0.6"/>
        <line x1="40" y1="58.2" x2="33.3" y2="56.3" fill="none" stroke="#fff" stroke-width="0.75" opacity="0.6"/>
        <line x1="32.7" y1="58.3" x2="39.5" y2="60.2" fill="none" stroke="#fff" stroke-width="0.75" opacity="0.6"/>
        <line x1="36.6" y1="32.7" x2="29.9" y2="34.7" fill="none" stroke="#fff" stroke-width="0.75" opacity="0.6"/>
        <line x1="30.5" y1="36.6" x2="37.2" y2="34.6" fill="none" stroke="#fff" stroke-width="0.75" opacity="0.6"/>
        <line x1="13.5" y1="46.4" x2="17.7" y2="52" fill="none" stroke="#fff" stroke-width="0.75" opacity="0.6"/>
        <line x1="19.3" y1="50.8" x2="15.1" y2="45.2" fill="none" stroke="#fff" stroke-width="0.75" opacity="0.6"/>
        <line x1="13.6" y1="55.7" x2="6.9" y2="57.6" fill="none" stroke="#fff" stroke-width="0.75" opacity="0.6"/>
        <line x1="7.5" y1="59.5" x2="14.2" y2="57.6" fill="none" stroke="#fff" stroke-width="0.75" opacity="0.6"/>
        <line x1="7.1" y1="66.2" x2="14.1" y2="66.6" fill="none" stroke="#fff" stroke-width="0.75" opacity="0.6"/>
        <line x1="14.2" y1="64.6" x2="7.2" y2="64.2" fill="none" stroke="#fff" stroke-width="0.75" opacity="0.6"/>
        <line x1="55" y1="53.4" x2="60.5" y2="57.6" fill="none" stroke="#fff" stroke-width="0.75" opacity="0.6"/>
        <line x1="61.8" y1="56" x2="56.2" y2="51.8" fill="none" stroke="#fff" stroke-width="0.75" opacity="0.6"/>
        <line x1="59.4" y1="61.2" x2="54.3" y2="66" fill="none" stroke="#fff" stroke-width="0.75" opacity="0.6"/>
        <line x1="55.7" y1="67.4" x2="60.8" y2="62.6" fill="none" stroke="#fff" stroke-width="0.75" opacity="0.6"/>
        <line x1="22.2" y1="21.1" x2="16.8" y2="16.7" fill="none" stroke="#fff" stroke-width="0.75" opacity="0.6"/>
        <line x1="15.5" y1="18.3" x2="20.9" y2="22.7" fill="none" stroke="#fff" stroke-width="0.75" opacity="0.6"/>
        <line x1="12" y1="18.1" x2="5.1" y2="17.3" fill="none" stroke="#fff" stroke-width="0.75" opacity="0.6"/>
        <line x1="4.9" y1="19.3" x2="11.8" y2="20.1" fill="none" stroke="#fff" stroke-width="0.75" opacity="0.6"/>
        <line x1="47" y1="41" x2="49.7" y2="34.6" fill="none" stroke="#fff" stroke-width="0.75" opacity="0.6"/>
        <line x1="47.9" y1="33.8" x2="45.1" y2="40.3" fill="none" stroke="#fff" stroke-width="0.75" opacity="0.6"/>
        <line x1="-2.6" y1="21.7" x2="2.8" y2="17.3" fill="none" stroke="#fff" stroke-width="0.75" opacity="0.6"/>
      </g>
      <g>
        <line x1="-4.7" y1="11.2" x2="1.4" y2="14.6" fill="none" stroke="#fff" stroke-width="0.75" opacity="0.6"/>
        <line x1="2.4" y1="12.9" x2="-3.7" y2="9.4" fill="none" stroke="#fff" stroke-width="0.75" opacity="0.6"/>
        <line x1="-5" y1="25.6" x2="0.4" y2="21.2" fill="none" stroke="#fff" stroke-width="0.75" opacity="0.6"/>
        <line x1="-2.7" y1="31.9" x2="3.9" y2="29.5" fill="none" stroke="#fff" stroke-width="0.75" opacity="0.6"/>
        <line x1="3.2" y1="27.6" x2="-3.4" y2="30" fill="none" stroke="#fff" stroke-width="0.75" opacity="0.6"/>
        <line x1="-5.7" y1="40.4" x2="1" y2="42.1" fill="none" stroke="#fff" stroke-width="0.75" opacity="0.6"/>
        <line x1="1.5" y1="40.2" x2="-5.2" y2="38.5" fill="none" stroke="#fff" stroke-width="0.75" opacity="0.6"/>
        <line x1="-6.3" y1="61.8" x2="0.5" y2="63.7" fill="none" stroke="#fff" stroke-width="0.75" opacity="0.6"/>
        <line x1="1" y1="61.7" x2="-5.7" y2="59.8" fill="none" stroke="#fff" stroke-width="0.75" opacity="0.6"/>
        <line x1="-5.5" y1="71.8" x2="1.2" y2="69.7" fill="none" stroke="#fff" stroke-width="0.75" opacity="0.6"/>
        <line x1="0.6" y1="67.8" x2="-6.1" y2="69.8" fill="none" stroke="#fff" stroke-width="0.75" opacity="0.6"/>
      </g>
      <rect x="32.8" y="-106.9" width="111" height="107.29" fill="#6e98af"/>
      <g>
        <rect x="-39.2" y="-106.9" width="111" height="107.29" fill="#6e98af"/>
        <line x1="24" y1="4.9" x2="21.4" y2="-1.6" fill="none" stroke="#fff" stroke-width="0.75" opacity="0.6"/>
        <line x1="45.1" y1="1.1" x2="38.6" y2="-1.4" fill="none" stroke="#fff" stroke-width="0.75" opacity="0.6"/>
        <line x1="66.5" y1="-0.2" x2="73.2" y2="-2.3" fill="none" stroke="#fff" stroke-width="0.75" opacity="0.6"/>
      </g>
      <line x1="-5.5" y1="-0.2" x2="1.2" y2="-2.3" fill="none" stroke="#fff" stroke-width="0.75" opacity="0.6"/>
    </pattern>
  </defs>
  <g style="isolation: isolate">
    <g id="Layer_2" data-name="Layer 2">
      <g id="Layer_2-2" data-name="Layer 2">
        <rect width="736" height="496" fill="none"/>
      </g>
      <g id="Layer_1-2" data-name="Layer 1">
        <path d="M279.1,439.3a7.1,7.1,0,0,0,1,3c.6,1,1.9,2.7,5.9,5s17.4,3.3,25.1,8.8a7.4,7.4,0,0,1,2.8,5.3,5.6,5.6,0,0,1-1.5,4.1,2.9,2.9,0,0,1-1.9.9H261.9a6.3,6.3,0,0,1-2.6-.8,8.7,8.7,0,0,1-3.7-4.4,14.9,14.9,0,0,1-1.1-5v-7" fill="none" stroke="#596199" stroke-miterlimit="10" stroke-width="2"/>
        <path d="M481.2,435.3s1.4,2.4,1.2,4c-.5,3.4-2.4,5.3-4,7.1s-3.2,3-6.9,5.8-4,2.7-4.9,4.5-1.7,2.7-1.1,4.5a3.4,3.4,0,0,0,1.2,1.7h17.2c.6-.1,4-.3,7.6-5.6,9.2-13.9,14.2-15.5,12.9-22.9-.6-2.9-4.7-7.1-4.7-7.1" fill="none" stroke="#6497ad" stroke-linecap="round" stroke-miterlimit="10" stroke-width="2"/>
        <path d="M219.2,445.4a13.7,13.7,0,0,0,1.4,5.2c2.3,6.8,1.8,10.2,1,14.3a6.2,6.2,0,0,1-1.6,2.2,5.6,5.6,0,0,1-3.7,1.4H186a4.4,4.4,0,0,1-1.5-.8,4.1,4.1,0,0,1-1.2-2.1c-1.9-6.7.3-9.8.3-9.8a19.3,19.3,0,0,1,2.7-4.4,25.4,25.4,0,0,0,2.8-4.2,23.4,23.4,0,0,0,2.7-7.8" fill="none" stroke="#596199" stroke-miterlimit="10" stroke-width="2"/>
        <path d="M212.6,454.8a23.5,23.5,0,0,0-8.6-4.6c-8.4-2.6-15.9.8-18.2,1.8" fill="none" stroke="#596199" stroke-miterlimit="10" stroke-width="2"/>
        <path d="M401.7,439.8l-3.8,5.7c-.5.9-1.6,2.2-4.9,4.2a51.9,51.9,0,0,1-11.4,4.7c-3,1-4.8,1.5-6.8,3.2a7,7,0,0,0-2.6,4.1,4,4,0,0,0,.8,3.4,2.9,2.9,0,0,0,1.7.7h35.6a9.2,9.2,0,0,0,2.2-.6c8.5-3.2,8.6-14.7,6.8-20.2" fill="none" stroke="#6497ad" stroke-linecap="round" stroke-miterlimit="10" stroke-width="2"/>
        <path d="M331.6,411.6v0Z" fill="none" stroke="#7e1fff" stroke-miterlimit="10"/>
        <path d="M278.9,368.4c2.9,3,6.9,6.9,11.8,11.3,8.5,7.8,15.4,13.2,20.4,17.1s12,9.3,19.9,14.8h1.3c51.6-36.2,116.3-97.4,135.7-185.4a280.2,280.2,0,0,0,4.8-31.6v-91L331.7,47.8,190.5,103.6v40" fill="none" stroke="#97b3c6" stroke-miterlimit="10" stroke-width="1.5"/>
        <path d="M280.3,394.9l9.3,7.7c18,13.8,31.2,23.7,33.1,25a10.4,10.4,0,0,0,5.8,1.8h6.2a10,10,0,0,0,5.8-1.8C395.1,389.8,464.6,324.8,485.4,230a268.9,268.9,0,0,0,5.2-34.7V102.8a16.6,16.6,0,0,0-10.5-15.5L335.6,30.2a10.2,10.2,0,0,0-7.9,0L183.2,87.3a16.5,16.5,0,0,0-10.5,15.4v92.6c.2,2.7.5,5.4.8,8" fill="none" stroke="#97b3c6" stroke-linecap="round" stroke-miterlimit="10" stroke-width="3"/>
        <path d="M331.6,411.6v0Z" fill="none" stroke="#81a9c9" stroke-miterlimit="10"/>
        <path d="M332.3,411.6c51.6-36.2,116.3-97.4,135.7-185.4a280.2,280.2,0,0,0,4.8-31.6v-91L331.7,47.8V411.6Z" fill="#81a9c9" stroke="#81a9c9" stroke-miterlimit="10" stroke-width="2" opacity="0.15"/>
        <path d="M100.1,285.4H27.8a10,10,0,0,1-10-10V128.5a10.1,10.1,0,0,1,10.1-10.1h244A10.1,10.1,0,0,1,282,128.5V257.9" fill="#fff" stroke="#5d5eff" stroke-miterlimit="10" stroke-width="3"/>
        <line x1="231.9" y1="147.1" x2="269.4" y2="147.1" fill="#fff" stroke="#008f88" stroke-linecap="round" stroke-miterlimit="10" stroke-width="1.5"/>
        <line x1="29.1" y1="147.1" x2="172.8" y2="147.1" fill="none" stroke="#97b3c6" stroke-miterlimit="10" stroke-width="1.5"/>
        <circle cx="34.2" cy="132.4" r="5.1" fill="#97b3c6"/>
        <circle cx="49.1" cy="132.4" r="5.1" fill="#97b3c6"/>
        <circle cx="64.1" cy="132.4" r="5.1" fill="#97b3c6"/>
        <path d="M484.6,253.2H602.2a12.5,12.5,0,0,1,12.5,12.5v86.5a17.9,17.9,0,0,1-17.9,17.9H456.5" fill="#fff" stroke="#ffa700" stroke-miterlimit="10" stroke-width="3"/>
        <path d="M449.7,349.2a25,25,0,0,0,3.8,5.2,82.8,82.8,0,0,1,8.6,8.6,78.4,78.4,0,0,1,7.5,10.7c4.1,7.1,14.7,27.7,24.9,49.5a11,11,0,0,1-2.2,12.3h0a8.5,8.5,0,0,1-11.6.3,279.8,279.8,0,0,1-38.6-43.1q.8-3.4,1.2-6.9a31.3,31.3,0,0,0-.9-11.6c-.6-3-1.1-5.2-.4-8.2,1.3-5.6,4.2-11.3,7.8-16.8" fill="#56b6d8"/>
        <path d="M401,278.8a84.9,84.9,0,0,0,14.6.5c10.1-.5,15.1-3.2,23.2-4.7,5.4-1,16.3-.2,26.9,1.6.1,0,.2.2.3.3.4,2.5.8,4.2.8,4.2.4,1.9,3.8,19.3-1.8,35.2-4.2,12-24.3,29.8-28.7,48.8-1.8,8.1,2.3,12.2,1.2,20.3-2.8,20.8-14.7,44.7-20.4,56.6a7.9,7.9,0,0,1-7.7,4.5,9.2,9.2,0,0,1-8.2-9.4c.8-20.7,2.7-48.1,6.3-72.6a603.5,603.5,0,0,1,13.2-65.2,2.8,2.8,0,0,0-2.1-3.5h0a2.9,2.9,0,0,0-3.5,2.1c-2.9,10.9-5.4,21.9-7.6,33-.1.1-.3.2-.3,0a118.5,118.5,0,0,1-7.2-43.6s.3-2.6,1-8.1" fill="#56b6d8"/>
        <path d="M449.7,349.2a25,25,0,0,0,3.8,5.2,82.8,82.8,0,0,1,8.6,8.6,78.4,78.4,0,0,1,7.5,10.7c4.1,7.1,14.7,27.7,24.9,49.5a11,11,0,0,1-2.2,12.3h0a8.5,8.5,0,0,1-11.6.3,279.8,279.8,0,0,1-38.6-43.1q.8-3.4,1.2-6.9a31.3,31.3,0,0,0-.9-11.6c-.6-3-1.1-5.2-.4-8.2,1.3-5.6,4.2-11.3,7.8-16.8" opacity="0.85" fill="url(#Hatching_Double)" style="mix-blend-mode: color-burn"/>
        <path d="M401,278.8a84.9,84.9,0,0,0,14.6.5c10.1-.5,15.1-3.2,23.2-4.7,5.4-1,16.3-.2,26.9,1.6.1,0,.2.2.3.3.4,2.5.8,4.2.8,4.2.4,1.9,3.8,19.3-1.8,35.2-4.2,12-24.3,29.8-28.7,48.8-1.8,8.1,2.3,12.2,1.2,20.3-2.8,20.8-14.7,44.7-20.4,56.6a7.9,7.9,0,0,1-7.7,4.5,9.2,9.2,0,0,1-8.2-9.4c.8-20.7,2.7-48.1,6.3-72.6a603.5,603.5,0,0,1,13.2-65.2,2.8,2.8,0,0,0-2.1-3.5h0a2.9,2.9,0,0,0-3.5,2.1c-2.9,10.9-5.4,21.9-7.6,33-.1.1-.3.2-.3,0a118.5,118.5,0,0,1-7.2-43.6s.3-2.6,1-8.1" opacity="0.85" fill="url(#Hatching_Double)" style="mix-blend-mode: color-burn"/>
        <path d="M224.1,306.1l-6.6-1.2a10.7,10.7,0,0,0-5.6.6l-7.4,2.8a9.8,9.8,0,0,1-6.1.1l-1-.4c-10.1.9-19.8,3.9-30.3,8.1a62.7,62.7,0,0,0-11.5,5.5l1.4,8.7c3.6,14.5,7.8,16,16.3,18.7s15.7,6.9,15.1,20.5l2.4,69.9h28.8a3.3,3.3,0,0,0,3.3-3l9-89c.2-4.2.4-7,0-9a20.6,20.6,0,0,0-6-11,2.8,2.8,0,0,1-.5-3.6h0a2.8,2.8,0,0,1,4.4-.6,25,25,0,0,1,7.8,14.1c.5,2.6.1,10.1-.1,14.6,0,0,9.3,1.2,10.3,8l4.3,76.7a3,3,0,0,0,3,2.8h24l9-89.5c-.4-15.4-5.6-23.7-15.8-29.9l-12.6-7.7-53.4,6.5a2.2,2.2,0,0,1-2.4-2l-.2-2.4a1.7,1.7,0,0,1,1.1-1.8l19.3-6.5" fill="#596199" stroke="#4d6a8c" stroke-miterlimit="10" stroke-width="0.75"/>
        <path d="M388.4,210.8l-20,30.7a11.7,11.7,0,0,0,4.2,16.6h0a10.4,10.4,0,0,0,14.6-5l9.1-21.5" fill="none" stroke="#000" stroke-linecap="round" stroke-miterlimit="10" stroke-width="0.75"/>
        <path d="M463.3,186.7c-.7-1.4-2-11.2-1.5-17.3s1.6-7.5,1.4-12.1a28.3,28.3,0,0,0-1.6-9.1,32,32,0,0,0-2.6-5.7c-2.4-4.3-4-5.1-6-8.2-3.2-5.1-1.8-7.2-3.8-10.2-4.6-7.1-20.1-8.8-30.8-2.5a19.4,19.4,0,0,0-11,13.3c-4.4,18.4.9,24.1,1.1,27.7.4,6.3-3.2,15.2-4.7,18.7h0l-.9.2-18.8,6.3a3.5,3.5,0,0,0-2.1,4.3l6.4,18.7h0l-20,30.7a11.7,11.7,0,0,0,4.2,16.6h0a10.4,10.4,0,0,0,14.6-5l9.1-21.5h0a3.6,3.6,0,0,0,2.9.4l4.7-1.6h0c2.3,9.8,3,13.5.5,27.6-1.6,9.1-2.7,15.9-3.3,20.6a62.2,62.2,0,0,0,14.6.7c10-.5,15.1-3.2,23.1-4.7,5.5-1,16.3-.1,27,1.6.1.1.2,0,.2-.1s-.5-2.9-.7-4.5a29.1,29.1,0,0,1,.2-8.2h.1a12.8,12.8,0,0,0,19-12l-1.7-24.9h0l-.5-7.7c-1.1-12.5-8.4-23.3-18-31l-1-.6" fill="#fff"/>
        <path d="M196.2,291.2l-40.6-7a2.5,2.5,0,0,1-2-2.6l.6-11.8-28.4,6.1-4.4-19.7a37.6,37.6,0,0,1,18.5-41l40-22.2.2,1.6a17.4,17.4,0,0,0,3,7.9,20.7,20.7,0,0,0,3.2,3.6,19,19,0,0,0,11.8,5.6,24.9,24.9,0,0,0,9.3-1.7,1.3,1.3,0,0,0,.8-1.3v-7.3a1.7,1.7,0,0,1,2.5-1.1l33.4,19.4a16.9,16.9,0,0,1,7.5,9.7l8.4,29.2-12.4.6a4,4,0,0,0-3.5,2.8l-1.4,4.9h-9.7l3.1,23.1-1.5,5.2-11.8-5.1a30.5,30.5,0,0,0-23-.3Z" fill="#717eaf" stroke="#717eaf" stroke-miterlimit="10" stroke-width="0.75"/>
        <path d="M197.2,307.9l-5.8-2-38,2.9,2.1,12.3a.3.3,0,0,0,.5.2,77.4,77.4,0,0,1,11.1-5.2c10.4-4.1,20.1-7.1,30.2-8.1" fill="#717eaf" stroke="#717eaf" stroke-miterlimit="10" stroke-width="0.75"/>
        <path d="M401.1,278.6c.6-4.7,1.7-11.5,3.3-20.6,2.5-14.1,1.8-17.8-.5-27.6l7.5-2.6a24.2,24.2,0,0,0,8.9,1.1l7.7-.5,34.6,32.5a14.2,14.2,0,0,0,2.8,2.2c.1.1.2.2.1.3a29.1,29.1,0,0,0-.2,8.2c.2,1.6.4,3.2.7,4.5s-.1.2-.2.1c-10.7-1.7-21.5-2.6-27-1.6-8,1.5-13.1,4.2-23.1,4.7a62.2,62.2,0,0,1-14.6-.7" fill="none" stroke="#8fc6e3" stroke-miterlimit="10" stroke-width="1.5"/>
        <path d="M195,187.5a13.1,13.1,0,0,0,4,3.5c5.1,2.9,10.4,1.5,11.6,1.2a17.9,17.9,0,0,0,10.5-7.7,3.3,3.3,0,0,0,.4-2.2c-1.8-10.4-2.9-17.5-4.8-28.2" fill="none" stroke="#464e56" stroke-linecap="round" stroke-miterlimit="10" stroke-width="1.5"/>
        <path d="M208.3,201.4v7.3a1.3,1.3,0,0,1-.8,1.3,24.9,24.9,0,0,1-9.3,1.7,19,19,0,0,1-11.8-5.6,20.7,20.7,0,0,1-3.2-3.6,17.4,17.4,0,0,1-3-7.9c-1.1-8.5-2.2-17.9-3.3-26.1a40.6,40.6,0,0,1-.1-9.4c.2-3.1,1.6-11.5,8.9-17.2s16.1-4.9,17.9-4.7a21.8,21.8,0,0,0,4.4-3.6,18.4,18.4,0,0,0,3-3.6,7,7,0,0,1,1.8,1.7,8.5,8.5,0,0,1,1.5,5,.4.4,0,0,0,.7.4,18.1,18.1,0,0,0,3.5-3.7,15.8,15.8,0,0,0,1.8-3.8,10.6,10.6,0,0,1,2.5,2.4c3.9,5,4,13.6-.6,18.6a11.8,11.8,0,0,1-5.4,3.5l-24.9,3.1-.2,7.9h-5.9a2.7,2.7,0,0,0-1.9.7c-1.3,1.2-.7,3.5-.6,3.9.7,2.4,4.4,3.9,8.1,4.5v3.6l-12,8.7" fill="none" stroke="#464e56" stroke-linecap="round" stroke-miterlimit="10" stroke-width="1.5"/>
        <path d="M436.1,169.3a14.2,14.2,0,0,1-11.4,2.7c-10.6-2.2-12.8-18.9-10.7-33.7" fill="none" stroke="#464e56" stroke-linecap="round" stroke-miterlimit="10" stroke-width="1.5"/>
        <path d="M388.4,210.8l-20,30.7a11.7,11.7,0,0,0,4.2,16.6h0a10.4,10.4,0,0,0,14.6-5l9.1-21.5" fill="none" stroke="#3f4b54" stroke-linecap="round" stroke-miterlimit="10" stroke-width="0.75"/>
        <path d="M126.5,275.9l2.7,15.4A22.3,22.3,0,0,0,153,308.7l38.4-2.8" fill="none" stroke="#3f4b54" stroke-linecap="round" stroke-miterlimit="10" stroke-width="1.5"/>
        <path d="M155.6,242.5l-2,39.1a2.5,2.5,0,0,0,2,2.6l40.6,7" fill="none" stroke="#3f4b54" stroke-linecap="round" stroke-miterlimit="10" stroke-width="1.5"/>
        <path d="M427.9,228.4l34.6,32.5c8.2,8.6,22.8,2.3,22.1-9.6l-1.7-24.9" fill="none" stroke="#3f4b54" stroke-linecap="round" stroke-miterlimit="10" stroke-width="1.5"/>
        <polyline points="428.9 210.8 420.3 204.9 414.2 204.1" fill="none" stroke="#3f4b54" stroke-linecap="round" stroke-miterlimit="10" stroke-width="0.75"/>
        <path d="M191.4,305.9l7,2.5a9.8,9.8,0,0,0,6.1-.1l7.4-2.8a10.7,10.7,0,0,1,5.6-.6l6.7,1.2" fill="none" stroke="#3f4b54" stroke-linecap="round" stroke-miterlimit="10" stroke-width="0.75"/>
        <path d="M234.7,295.2l-11.8-5.1a30.5,30.5,0,0,0-23-.3l-3.7,1.4" fill="none" stroke="#3f4b54" stroke-linecap="round" stroke-miterlimit="10" stroke-width="1.5"/>
        <line x1="229.8" y1="242.3" x2="236.2" y2="290" fill="none" stroke="#3f4b54" stroke-linecap="round" stroke-miterlimit="10" stroke-width="1.5"/>
        <path d="M388.4,210.8l-20,30.7a11.7,11.7,0,0,0,4.2,16.6h0a10.4,10.4,0,0,0,14.6-5l9.1-21.5" fill="none" stroke="#3f4b54" stroke-linecap="round" stroke-miterlimit="10" stroke-width="1.5"/>
        <path d="M191.4,305.9l7,2.5a9.8,9.8,0,0,0,6.1-.1l7.4-2.8a10.7,10.7,0,0,1,5.6-.6l6.7,1.2" fill="none" stroke="#3f4b54" stroke-linecap="round" stroke-miterlimit="10" stroke-width="1.5"/>
        <path d="M175.1,321.4c-.4,2.9-.5,7.1,2,10.4s3.4,2.4,5.8,3.8c13.9,8.2,17.1,18.1,18,22.9,3.3,18.6,2.1,69.9,2,74.4" fill="none" stroke="#fff" stroke-linecap="round" stroke-miterlimit="10"/>
        <path d="M242.6,334.9c4.5.6,11.2,2.4,15.1,7.8a17.1,17.1,0,0,1,2.9,7.8c1.3,9.4,1.7,40.5,1,82.6" fill="none" stroke="#fff" stroke-linecap="round" stroke-miterlimit="10"/>
        <path d="M182.6,362.9H139.1a20.9,20.9,0,0,1-20-14.8L94.6,267.3a12.8,12.8,0,0,1,12.2-16.4h9.1" fill="none" stroke="#97b3c6" stroke-linecap="round" stroke-miterlimit="10" stroke-width="3"/>
        <line x1="244.7" y1="362.9" x2="235.4" y2="362.9" fill="none" stroke="#97b3c6" stroke-linecap="round" stroke-miterlimit="10" stroke-width="3"/>
        <path d="M292.6,351.2h19.7a6.1,6.1,0,0,1,6.1,5.3,5.8,5.8,0,0,1-5.8,6.4H291.3" fill="none" stroke="#97b3c6" stroke-linecap="round" stroke-miterlimit="10" stroke-width="3"/>
        <path d="M117.6,262.6h-7.3a3.7,3.7,0,0,0-3.5,4.7l23.1,76.2a11,11,0,0,0,10.5,7.7H166" fill="none" stroke="#97b3c6" stroke-linecap="round" stroke-miterlimit="10" stroke-width="3"/>
        <rect x="29.1" y="164.5" width="61" height="60.97" rx="4.1" fill="#5d5eff"/>
        <rect x="44.9" y="193.6" width="29.3" height="20.36" rx="1.3" fill="none" stroke="#fff" stroke-linecap="round" stroke-miterlimit="10" stroke-width="4"/>
        <path d="M49,186a10.3,10.3,0,0,1,10.3-10.3h0A10.3,10.3,0,0,1,69.6,186" fill="none" stroke="#fff" stroke-linecap="round" stroke-miterlimit="10" stroke-width="4"/>
        <line x1="59.6" y1="201.9" x2="59.6" y2="206.5" fill="none" stroke="#fff" stroke-linecap="round" stroke-miterlimit="10" stroke-width="4"/>
        <rect x="535.6" y="291.8" width="61" height="60.97" rx="4.1" fill="#ffa700"/>
        <path d="M562.4,305.9a3.2,3.2,0,0,1,.3-1.4,3.8,3.8,0,0,1,3.4-2.2h0a3.6,3.6,0,0,1,3.3,2.2,3.2,3.2,0,0,1,.3,1.4" fill="none" stroke="#fff" stroke-linecap="round" stroke-miterlimit="10" stroke-width="4" fill-rule="evenodd"/>
        <path d="M566.1,305.9h0A10.1,10.1,0,0,1,576.2,316v5.6a14.4,14.4,0,0,0,1.4,6.7c1.2,2.2,2.7,4,2.6,4.1s-9.1,0-14.1,0-14.1.2-14.2,0,1.4-1.9,2.6-4.2a13.8,13.8,0,0,0,1.4-6.6V316a10.2,10.2,0,0,1,10.2-10.1Z" fill="none" stroke="#fff" stroke-linecap="round" stroke-miterlimit="10" stroke-width="4" fill-rule="evenodd"/>
        <path d="M561.5,339.2a4.9,4.9,0,0,0,4.6,3h0a4.8,4.8,0,0,0,4.5-3" fill="none" stroke="#fff" stroke-linecap="round" stroke-miterlimit="10" stroke-width="4" fill-rule="evenodd"/>
        <path d="M614.2,293.4h85.4a13.6,13.6,0,0,0,13.6-13.6V68.5a13.7,13.7,0,0,0-13.6-13.7H555.4a13.7,13.7,0,0,0-13.6,13.7v52.8" fill="none" stroke="#97b3c6" stroke-linecap="round" stroke-miterlimit="10" stroke-width="3"/>
        <path d="M613.7,264h84.5a2.5,2.5,0,0,0,2.5-2.5V76a2.5,2.5,0,0,0-2.5-2.5H556.8a2.5,2.5,0,0,0-2.5,2.5v49.7" fill="none" stroke="#6497ad" stroke-linecap="round" stroke-miterlimit="10" stroke-width="1.5" opacity="0.4"/>
        <line x1="541.8" y1="68.5" x2="541.8" y2="251.8" fill="none" stroke="#97b3c6" stroke-linecap="round" stroke-miterlimit="10" stroke-width="3"/>
        <line x1="554.3" y1="76" x2="554.3" y2="252.2" fill="none" stroke="#6497ad" stroke-linecap="round" stroke-miterlimit="10" stroke-width="1.5" opacity="0.4"/>
        <circle cx="568.6" cy="85.3" r="5.1" fill="#97b3c6"/>
        <circle cx="583.5" cy="85.3" r="5.1" fill="#97b3c6"/>
        <circle cx="598.4" cy="85.3" r="5.1" fill="#97b3c6"/>
        <line x1="689.8" y1="96.5" x2="566.1" y2="96.5" fill="none" stroke="#97b3c6" stroke-linecap="round" stroke-miterlimit="10" stroke-width="1.5"/>
        <ellipse cx="268.3" cy="282.4" rx="11.9" ry="10.5" transform="translate(-110 375.1) rotate(-60.2)" fill="#5d5eff"/>
        <path d="M392.6,201.7h-.5a2.5,2.5,0,0,1-3.3-1.5l-1.9-5.6a2.4,2.4,0,0,1,1.7-3.1l.5-.2a2.6,2.6,0,0,1,3.3,1.6l1.9,5.5A2.6,2.6,0,0,1,392.6,201.7Z" fill="#ffa700"/>
        <path d="M232.4,303.4l-27.6,9.2a1.7,1.7,0,0,0-1.1,1.8l.2,2.4a2.2,2.2,0,0,0,2.4,2l75.4-9.1a4.2,4.2,0,0,0,3.6-2.9l15.4-46.2a2.9,2.9,0,0,0-3-3.9l-50,2.5a4,4,0,0,0-3.5,2.8Z" fill="none" stroke="#5d5eff" stroke-miterlimit="10" stroke-width="2"/>
        <path d="M233.8,298.2l-1.9,7a1.4,1.4,0,0,0,1.4,1.7l53.4-4.2" fill="none" stroke="#5d5eff" stroke-miterlimit="10" stroke-width="2"/>
        <path d="M462.4,232.6c.1.2-.1.3-.3.2l-33-22.3-8.5-5.8-6.1-.8-6.6-19.6,8.7-5.1a3,3,0,0,1,4.4,2.1c.5,2.7,1.1,5.6,1.1,5.6,1.5,6.5,12.3,8.8,17.9,2.4,3.4-4,4.5-9,4.8-14.3l19.4,12.5c9.5,7.6,16.7,18.4,17.9,30.7l.5,7.7h-.1l-20.8.9c-.2,0-.3.1-.2.3Z" fill="#8fc6e3" fill-opacity="0.6"/>
        <path d="M400.9,278.4c.7-4.7,1.7-11.4,3.3-20.4,2.5-13.9,1.8-17.7-.5-27.4l7.5-2.5a23.2,23.2,0,0,0,8.8,1.1l7.5-.5,34.3,32.1a14.9,14.9,0,0,0,2.8,2.3c.1,0,.1.1.1.2a25.1,25.1,0,0,0-.2,8.1q.3,2.6.6,4.5c0,.1,0,.2-.1.1-10.6-1.7-21.3-2.6-26.7-1.6-8,1.5-13,4.2-22.9,4.7a67.1,67.1,0,0,1-14.5-.7" fill="#8fc6e3" fill-opacity="0.6"/>
        <path d="M405.6,178a34.7,34.7,0,0,0,3.1-15.3c-.2-3.7-5.6-9.4-1.2-27.9a19.7,19.7,0,0,1,11.1-13.3c10.8-6.4,26.4-4.7,31,2.4,2,3.1.6,5.2,3.9,10.3,2,3.1,3.6,4,6,8.3a36.3,36.3,0,0,1,2.6,5.7,29.6,29.6,0,0,1,1.6,9.1c.2,4.7-.8,4.6-1.4,12.2s.8,16,1.4,17.4l-18.8-11.7-.2-16.2,5.5-4,2.1-4v-5.6l-4.4-2.1-3.7,1.3-1.5,2.5-10-1.6-8.6-2.7-10-4.5-.9,14.6,5,15.7s2.6,8-1.5,10.2l-6.6,3.7A11.2,11.2,0,0,0,405.6,178Z" fill="#464e56"/>
        <path d="M178.6,181.5c-.9-7.6-1.4-10.9-2.1-18.8-.2-2.1.5-3.1.8-6.9s2.6-9.2,9.5-14.7,15.2-4.4,17.1-4.1h.1a23.2,23.2,0,0,0,4.2-3.4,20.4,20.4,0,0,0,2.8-3.5,6.4,6.4,0,0,1,1.7,1.6,8.2,8.2,0,0,1,1.5,4.5.6.6,0,0,0,1,.4,13.2,13.2,0,0,0,2.9-3.2,15.4,15.4,0,0,0,1.8-3.7,9.2,9.2,0,0,1,2.7,2.2c3.7,4.7,4.5,13,.1,17.9-.8.8-2.6,3.4-5.9,4.3l-24.7,3.3c-.4,1.8-.4,5.9-.6,7.8-.5,0-6.8-.3-8.2,1s.4,4.7.6,5,4,1.9,7.2,3c.1.1.2.2.1.3v3.3s-11.2,8.6-11.9,8.7l-.7-4.9" fill="#464e56"/>
        <path d="M479.9,163.1a16.2,16.2,0,0,1-1.6-6.9V139.6A15.8,15.8,0,0,1,494,123.9h67.4a15.8,15.8,0,0,1,15.8,15.8v16.5a15.7,15.7,0,0,1-15.7,15.7H514.6" fill="#fff" stroke="#ffa700" stroke-miterlimit="10" stroke-width="3"/>
        <path d="M485.9,159.1V182a1.4,1.4,0,0,0,2.1,1.2l19.8-11.4a1.4,1.4,0,0,0,0-2.4L488,157.9A1.4,1.4,0,0,0,485.9,159.1Z" fill="#fff" stroke="#ffa700" stroke-miterlimit="10" stroke-width="3"/>
        <circle cx="505.6" cy="147.4" r="7.9" fill="#ffd333"/>
        <circle cx="528.9" cy="147.4" r="7.9" fill="#ffd333"/>
        <circle cx="552.3" cy="147.4" r="7.9" fill="#ffd333"/>
        <path d="M463.3,186.7c-.7-1.4-2-11.2-1.5-17.3s1.6-7.5,1.4-12.1a28.3,28.3,0,0,0-1.6-9.1,32,32,0,0,0-2.6-5.7c-2.4-4.3-4-5.1-6-8.2-3.2-5.1-1.8-7.2-3.8-10.2-4.6-7.1-20.1-8.8-30.8-2.5a19.4,19.4,0,0,0-11,13.3c-4.4,18.4.9,24.1,1.1,27.7a32.9,32.9,0,0,1-2.9,15.1" fill="none" stroke="#464e56" stroke-linecap="round" stroke-miterlimit="10" stroke-width="0.75"/>
        <path d="M414,138.3l7.9,3.6a61.1,61.1,0,0,0,20,5.2,1.4,1.4,0,0,0,1.2-.7,4.1,4.1,0,0,1,1.5-1.8,5.5,5.5,0,0,1,6.9.4c2.3,2.4.2,7.4-1.8,9.9a10.9,10.9,0,0,1-4.5,3.4,1.2,1.2,0,0,0-.7,1.1c.1,4.3.2,6.9.3,11.4.1,6.7-.5,13.5-4.9,18.6s-16.6,4.1-18.1-2.4c0,0-.6-3-1.1-5.7" fill="none" stroke="#464e56" stroke-linecap="round" stroke-miterlimit="10" stroke-width="0.75"/>
        <line x1="471.9" y1="274.2" x2="605.1" y2="274.2" fill="none" stroke="#97b3c6" stroke-miterlimit="10" stroke-width="1.5"/>
        <path d="M462.6,233.2c0,.1-.2.3-.3.2l-33.4-22.6-8.6-5.9-6.1-.8-6.7-19.7,8.8-5.2a3,3,0,0,1,4.4,2.1c.5,2.7,1.1,5.7,1.1,5.7,1.5,6.5,12.5,8.9,18.1,2.4,3.5-4.1,4.6-9.1,4.8-14.4l19.7,12.6c9.6,7.7,16.9,18.5,18,31l.5,7.7h-.1l-21,1a.2.2,0,0,0-.2.2Z" fill="none" stroke="#8fc6e3" stroke-miterlimit="10" stroke-width="1.5"/>
        <line x1="428.9" y1="210.8" x2="470.4" y2="238.9" fill="none" stroke="#3f4b54" stroke-linecap="round" stroke-miterlimit="10" stroke-width="1.5"/>
        <polyline points="428.9 210.8 420.3 204.9 414.2 204.1" fill="none" stroke="#3f4b54" stroke-linecap="round" stroke-miterlimit="10" stroke-width="1.5"/>
        <path d="M461.7,228l1,5.6" fill="none" stroke="#3f4b54" stroke-linecap="round" stroke-miterlimit="10" stroke-width="1.5"/>
        <path d="M458.8,211.8l2.7,15.5" fill="none" stroke="#3f4b54" stroke-linecap="round" stroke-miterlimit="10" stroke-width="1.5"/>
        <path d="M410.4,228.2,399.2,232a3.5,3.5,0,0,1-4.4-2.2L382,192.1a3.5,3.5,0,0,1,2.1-4.3l18.8-6.3a3.4,3.4,0,0,1,4.3,2.1l8.1,23.8" fill="none" stroke="#ffa700" stroke-miterlimit="10" stroke-width="2"/>
        <path d="M419.4,209.4,403.6,208a8.2,8.2,0,0,0-5.3,1.2h0a3.2,3.2,0,0,0-1.3,3.7h.1a22.4,22.4,0,0,0,23.2,15.9l7.6-.5" fill="none" stroke="#3f4b54" stroke-linecap="round" stroke-miterlimit="10" stroke-width="1.5"/>
      </g>
    </g>
  </g>
</svg>
