<?xml version="1.0" encoding="UTF-8"?>
<svg width="282px" height="192px" viewBox="0 0 282 192" version="1.1" xmlns="http://www.w3.org/2000/svg" xmlns:xlink="http://www.w3.org/1999/xlink">
    <title>Group 3</title>
    <g id="Design-" stroke="none" stroke-width="1" fill="none" fill-rule="evenodd">
        <g id="account-security-copy-12" transform="translate(-833.000000, -312.000000)">
            <g id="Group-3" transform="translate(834.000000, 313.000000)">
                <rect id="Rectangle" fill="#FFFFFF" x="0" y="0" width="280" height="164"></rect>
                <g id="Asset-4">
                    <line x1="250.25643" y1="27.8267717" x2="269.126772" y2="27.8167979" id="Path" stroke="#97B3C6" stroke-width="1.49606299" stroke-linecap="round"></line>
                    <line x1="7.82440945" y1="27.8217848" x2="120.602625" y2="27.8217848" id="Path" stroke="#97B3C6" stroke-width="1.49606299" stroke-linecap="round"></line>
                    <path d="M0.249343832,151.980052 L0.249343832,4.79238845 C0.249343832,2.28333419 2.28333419,0.249343832 4.79238845,0.249343832 L87.7291339,0.249343832" id="Path" stroke="#97B3C6" stroke-width="1.49606299" stroke-linecap="round"></path>
                    <path d="M114.084777,163.923622 L4.73254593,163.923622 C2.25378761,163.923622 0.244356955,161.914191 0.244356955,159.435433 L0.244356955,149.960367" id="Path" stroke="#97B3C6" stroke-width="1.49606299" stroke-linecap="round"></path>
                    <path d="M280.112861,50.1131234 L280.112861,159.176115 C280.110109,161.798897 277.983151,163.923622 275.360367,163.923622 L111.456693,163.923622" id="Path" stroke="#97B3C6" stroke-width="1.49606299" stroke-linecap="round"></path>
                    <circle id="Oval" fill="#97B3C6" fill-rule="nonzero" cx="11.724147" cy="12.4272966" r="3.40603675"></circle>
                    <circle id="Oval" fill="#97B3C6" fill-rule="nonzero" cx="21.747769" cy="12.4272966" r="3.40603675"></circle>
                    <circle id="Oval" fill="#97B3C6" fill-rule="nonzero" cx="31.776378" cy="12.4272966" r="3.40603675"></circle>
                    <rect id="Rectangle" stroke="#97B3C6" stroke-width="1.49606299" fill="#FFFFFF" fill-rule="nonzero" stroke-linecap="round" x="31.5419948" y="19.4139108" width="216.684777" height="153.964829"></rect>
                    <path d="M83.9041995,0.249343832 L275.230709,0.249343832 C277.927047,0.249343832 280.112861,2.43515784 280.112861,5.13149606 L280.112861,53.5440945" id="Path" stroke="#97B3C6" stroke-width="1.49606299" stroke-linecap="round"></path>
                    <rect id="Rectangle" fill="#E0E4E9" fill-rule="nonzero" x="38.1296588" y="33.7611549" width="201.16063" height="30.8986877" rx="2.2191601"></rect>
                    <g id="Group" opacity="0.3" transform="translate(37.900262, 106.719160)" fill="#E0E4E9" fill-rule="nonzero">
                        <rect id="Rectangle" x="0.229396325" y="0.194488189" width="201.16063" height="30.8986877" rx="2.2191601"></rect>
                    </g>
                    <g id="Group" opacity="0.3" transform="translate(37.900262, 144.120735)" fill="#E0E4E9" fill-rule="nonzero">
                        <path d="M201.390026,29.023622 L0.229396325,29.023622 L0.229396325,2.56824147 C0.232146141,1.34182696 1.22712571,0.349081365 2.45354331,0.349081365 L199.170866,0.349081365 C200.396474,0.349081365 201.390026,1.34263319 201.390026,2.56824147 L201.390026,29.023622 Z" id="Path"></path>
                    </g>
                    <rect id="Rectangle" fill="#E0E4E9" fill-rule="nonzero" opacity="0.5" x="38.1296588" y="70.664042" width="201.16063" height="30.8986877" rx="2.2191601"></rect>
                    <rect id="Rectangle" stroke="#7653AD" stroke-width="1.49606299" transform="translate(142.714436, 115.249213) rotate(-180.000000) translate(-142.714436, -115.249213) " x="119.854593" y="96.5958005" width="45.719685" height="37.3068241" rx="2.24908136"></rect>
                    <path d="M160.54252,96.5908136 L160.54252,83.2808399 C160.54252,76.9114788 157.144506,71.0259464 151.628478,67.8412658 C146.112449,64.6565852 139.316422,64.6565852 133.800394,67.8412658 C128.284365,71.0259464 124.886352,76.9114788 124.886352,83.2808399 L124.886352,96.5858268" id="Path" stroke="#7653AD" stroke-width="1.49606299"></path>
                    <path d="M132.650919,96.5908136 L132.650919,83.2808399 C132.650919,77.7339296 137.147578,73.2372703 142.694488,73.2372703 C148.241398,73.2372703 152.738058,77.7339296 152.738058,83.2808399 L152.738058,96.5858268" id="Path" stroke="#7653AD" stroke-width="1.49606299"></path>
                    <path d="M142.799213,30.4199475 C141.943897,30.4259123 141.09759,30.5951736 140.305774,30.9186352 L81.2860892,54.292126 C79.9991107,54.8035209 79.1549534,56.0489989 79.1566902,57.4338583 L79.1566902,96.97979 C79.5378337,101.615137 80.2275517,106.219922 81.2212598,110.763517 C90.1427822,151.466404 121.430446,177.173753 139.358268,189.37664 C139.505839,189.474618 139.679861,189.525084 139.856955,189.521616 L145.75643,189.521616 C145.933694,189.526398 146.108106,189.475819 146.255118,189.37664 C164.18294,177.173753 195.470604,151.476378 204.392126,110.763517 C205.383323,106.21946 206.073015,101.614843 206.456693,96.97979 L206.456693,57.4338583 C206.456693,56.0481899 205.610338,54.8030656 204.32231,54.292126 L145.292651,30.9186352 C144.500553,30.5961098 143.654428,30.4268848 142.799213,30.4199475 Z" id="Path" stroke="#12A9FF" stroke-width="1.49606299" fill="#FFFFFF" fill-rule="nonzero"></path>
                    <path d="M142.544882,179.981365 C122.737008,166.062992 97.9422572,142.539895 90.5267717,108.713911 C89.652442,104.711576 89.0361248,100.657209 88.6816273,96.575853 L88.6816273,61.6228346 L142.799213,40.1792651 L196.911811,61.6228346 L196.911811,96.575853 C196.557314,100.657209 195.940996,104.711576 195.066667,108.713911 C187.651181,142.539895 162.861417,166.062992 143.053543,179.981365 L142.544882,179.981365 Z" id="Path" fill="#12A9FF" fill-rule="nonzero"></path>
                    <path d="M142.544882,179.981365 C122.737008,166.062992 97.9422572,142.539895 90.5267717,108.713911 C89.652442,104.711576 89.0361248,100.657209 88.6816273,96.575853 L88.6816273,61.6228346 L142.799213,40.1792651 L142.799213,179.981365 L142.544882,179.981365 Z" id="Path" fill="#FFFFFF" fill-rule="nonzero" opacity="0.4"></path>
                    <rect id="Rectangle" fill="#FFFFFF" fill-rule="nonzero" x="119.854593" y="96.5908136" width="45.719685" height="37.3068241" rx="2.24908136"></rect>
                    <path d="M160.54252,96.5908136 L160.54252,83.2808399 C160.54252,76.9114788 157.144506,71.0259464 151.628478,67.8412658 C146.112449,64.6565852 139.316422,64.6565852 133.800394,67.8412658 C128.284365,71.0259464 124.886352,76.9114788 124.886352,83.2808399 L124.886352,96.5858268 L132.650919,96.5858268 L132.650919,83.2808399 C132.650919,77.7339296 137.147578,73.2372703 142.694488,73.2372703 C148.241398,73.2372703 152.738058,77.7339296 152.738058,83.2808399 L152.738058,96.5858268 L160.54252,96.5908136 Z" id="Path" fill="#FFFFFF" fill-rule="nonzero"></path>
                    <path d="M142.714436,96.5908136 L160.966404,96.5908136 C163.556287,96.6044895 165.650878,98.7035324 165.659055,101.293438 L165.659055,129.219948 C165.650878,131.809853 163.556287,133.908896 160.966404,133.922572 L142.799213,133.922572 L142.714436,96.5908136 Z" id="Path" fill="#F1F2F6" fill-rule="nonzero"></path>
                    <path d="M142.799213,73.2223097 C148.345454,73.236051 152.835064,77.7345824 152.837795,83.2808399 L152.837795,96.5858268 L160.627308,96.5858268 L160.627308,83.2808399 C160.63259,78.5472467 158.757252,74.0054268 155.413837,70.65453 C152.070423,67.3036333 147.532806,65.4181483 142.799213,65.4128609 L142.799213,73.2223097 Z" id="Path" fill="#F1F3F4" fill-rule="nonzero"></path>
                    <rect id="Rectangle" stroke="#12A9FF" stroke-width="1.49606299" fill="#12A9FF" fill-rule="nonzero" x="141.113648" y="108.92336" width="3.31627297" height="12.6417323" rx="0.603412073"></rect>
                    <circle id="Oval" fill="#FFFFFF" fill-rule="nonzero" transform="translate(57.667269, 49.211998) rotate(-12.720000) translate(-57.667269, -49.211998) " cx="57.6672692" cy="49.2119976" r="9.55485564"></circle>
                    <circle id="Oval" fill="#FFFFFF" fill-rule="nonzero" transform="translate(57.669173, 86.111829) rotate(-12.720000) translate(-57.669173, -86.111829) " cx="57.6691728" cy="86.1118293" r="9.55485564"></circle>
                    <circle id="Oval" fill="#FFFFFF" fill-rule="nonzero" transform="translate(57.671852, 122.364439) rotate(-12.720000) translate(-57.671852, -122.364439) " cx="57.6718519" cy="122.364439" r="9.55485564"></circle>
                    <circle id="Oval" fill="#FFFFFF" fill-rule="nonzero" transform="translate(57.672980, 159.916480) rotate(-12.720000) translate(-57.672980, -159.916480) " cx="57.6729798" cy="159.91648" r="9.55485564"></circle>
                    <path d="M52.2425197,50.0532808 C51.9933044,49.8040123 51.9933044,49.3999247 52.2425197,49.1506562 C52.4956719,48.9061912 52.896979,48.9061912 53.1501312,49.1506562 L55.748294,51.7288714 L62.176378,45.3506562 C62.4256465,45.1014409 62.8297341,45.1014409 63.0790026,45.3506562 C63.2009018,45.468149 63.2697668,45.6301707 63.2697668,45.7994751 C63.2697668,45.9687794 63.2009018,46.1308011 63.0790026,46.248294 L56.2020997,53.0753281 C55.951122,53.3251172 55.5454659,53.3251172 55.2944882,53.0753281 L52.2425197,50.0532808 Z" id="prefix_checkmarkselected-a" stroke="#97B3C6" stroke-width="1.49606299" fill="#97B3C6"></path>
                    <path d="M52.2425197,86.956168 C51.9933044,86.7068995 51.9933044,86.3028118 52.2425197,86.0535433 C52.4956719,85.8090783 52.896979,85.8090783 53.1501312,86.0535433 L55.748294,88.6317585 L62.176378,82.2535433 C62.4256465,82.004328 62.8297341,82.004328 63.0790026,82.2535433 C63.2009018,82.3710361 63.2697668,82.5330579 63.2697668,82.7023622 C63.2697668,82.8716666 63.2009018,83.0336883 63.0790026,83.1511811 L56.2020997,89.9782152 C55.951122,90.2280043 55.5454659,90.2280043 55.2944882,89.9782152 L52.2425197,86.956168 Z" id="prefix_checkmarkselected-a-2" stroke="#97B3C6" stroke-width="1.49606299" fill="#97B3C6"></path>
                    <path d="M52.2425197,123.205774 C52.1231432,123.086922 52.0560339,122.925409 52.0560339,122.756955 C52.0560339,122.588502 52.1231432,122.426989 52.2425197,122.308136 C52.4934974,122.058347 52.8991535,122.058347 53.1501312,122.308136 L55.748294,124.881365 L62.176378,118.50315 C62.4256465,118.253934 62.8297341,118.253934 63.0790026,118.50315 C63.2009018,118.620642 63.2697668,118.782664 63.2697668,118.951969 C63.2697668,119.121273 63.2009018,119.283295 63.0790026,119.400787 L56.2020997,126.232808 C55.9489475,126.477273 55.5476404,126.477273 55.2944882,126.232808 L52.2425197,123.205774 Z" id="prefix_checkmarkselected-a-3" stroke="#97B3C6" stroke-width="1.49606299" fill="#97B3C6"></path>
                    <path d="M52.2425197,160.761942 C51.9933044,160.512674 51.9933044,160.108586 52.2425197,159.859318 C52.4956719,159.614853 52.896979,159.614853 53.1501312,159.859318 L55.748294,162.437533 L62.176378,156.059318 C62.4256465,155.810102 62.8297341,155.810102 63.0790026,156.059318 C63.2009018,156.17681 63.2697668,156.338832 63.2697668,156.508136 C63.2697668,156.677441 63.2009018,156.839463 63.0790026,156.956955 L56.2020997,163.78399 C55.951122,164.033779 55.5454659,164.033779 55.2944882,163.78399 L52.2425197,160.761942 Z" id="prefix_checkmarkselected-a-4" stroke="#97B3C6" stroke-width="1.49606299" fill="#97B3C6"></path>
                    <circle id="Oval" stroke="#12A9FF" stroke-width="1.49606299" fill="#FFFFFF" fill-rule="nonzero" stroke-linecap="round" cx="195.635171" cy="124.66063" r="34.723622"></circle>
                    <path d="M195.640157,149.34567 C182.008286,149.348421 170.954725,138.30081 170.950136,124.668939 C170.945549,111.037068 181.99167,99.9820189 195.62354,99.975591 C209.255411,99.9691686 220.311948,111.0138 220.32021,124.645669 C220.311973,138.275903 209.27038,149.32642 195.640157,149.34567 Z" id="Path" fill="#82C9FC" fill-rule="nonzero"></path>
                    <circle id="Oval" fill="#FFFFFF" fill-rule="nonzero" cx="195.635171" cy="119.12021" r="8.09370079"></circle>
                    <path d="M195.605249,144.264042 C202.007734,144.262062 208.006029,141.13446 211.672966,135.886089 C211.773419,135.729061 211.754961,135.52397 211.628084,135.387402 L211.628084,135.387402 C209.240672,132.978887 206.168979,131.36468 202.831234,130.764567 L202.831234,130.764567 C198.073208,129.914301 193.20212,129.914301 188.444094,130.764567 L188.444094,130.764567 C185.101938,131.360252 182.025789,132.974969 179.63727,135.387402 L179.63727,135.387402 C179.505017,135.521526 179.486209,135.730506 179.592388,135.886089 C183.257594,141.13643 189.256996,144.26461 195.660105,144.264042" id="Path" fill="#FFFFFF" fill-rule="nonzero"></path>
                </g>
            </g>
        </g>
    </g>
</svg>